<svg width="464" height="464" viewBox="0 0 464 464" fill="none" xmlns="http://www.w3.org/2000/svg">
<g clip-path="url(#clip0_622_9173)">
<path d="M231.632 460C357.758 460 460 357.758 460 231.632C460 105.505 357.758 3.26313 231.632 3.26312C105.505 3.26311 3.26312 105.505 3.26311 231.632C3.2631 357.758 105.505 460 231.632 460Z" fill="url(#paint0_diamond_622_9173)"/>
<path d="M121.797 286.054L28.4239 333.194C22.6273 321.741 17.8085 309.729 13.9675 297.228L114.184 266.57C116.21 273.274 118.654 279.909 121.797 286.054Z" fill="#DD375F"/>
<path d="M191.285 114.114L156.296 15.0151C168.378 10.755 180.879 7.47268 193.799 5.30771L211.538 108.877C204.554 110.064 197.78 111.81 191.285 114.114Z" fill="#DD375F"/>
<path d="M4.26007 220.686L109.226 225.156C109.156 226.902 109.086 228.648 109.086 230.394C109.086 235.701 109.435 240.939 110.134 246.037L5.86636 259.376C4.67912 249.878 4.05057 240.171 4.05057 230.394C4.05057 227.181 4.1204 223.899 4.26007 220.686Z" fill="#DD375F"/>
<path d="M146.449 320.065L73.7483 395.909C64.3901 386.969 55.8699 377.262 48.118 366.856L132.551 304.352C136.742 309.939 141.351 315.176 146.379 319.995L146.449 320.065Z" fill="#DD375F"/>
<path d="M221.664 354.355L212.795 459.042C199.735 457.924 186.955 455.759 174.594 452.547L201.062 350.863C207.697 352.609 214.61 353.727 221.664 354.355Z" fill="#DD375F"/>
<path d="M181.368 344.019L138.069 439.766C126.196 434.389 114.952 428.034 104.267 420.84L163.07 333.823C168.797 337.734 174.943 341.086 181.368 344.019Z" fill="#DD375F"/>
<path d="M154.969 134.437L88.973 52.7273C99.0296 44.6262 109.715 37.3631 121.028 31.0079L172.289 122.704C166.143 126.127 160.417 130.037 154.969 134.437Z" fill="#DD375F"/>
<path d="M127.383 165.724L37.9218 110.623C44.696 99.5883 52.4479 89.1825 60.9681 79.4751L139.815 148.894C135.205 154.131 131.015 159.718 127.383 165.724Z" fill="#DD375F"/>
<path d="M111.88 204.414L9.14872 182.276C11.8724 169.496 15.7134 157.134 20.4624 145.262L117.955 184.441C115.371 190.866 113.276 197.57 111.81 204.414L111.88 204.414Z" fill="#DD375F"/>
<path d="M222.153 354.565L213.074 457.924C219.22 458.413 225.505 458.692 231.791 458.762L231.791 462.743C238.704 462.743 245.618 462.464 252.393 461.905L242.895 357.219C239.403 357.498 235.911 357.638 232.419 357.707" fill="#38BB7F"/>
<path d="M349.397 266.919L449.893 297.717C453.664 285.426 456.388 272.785 458.064 259.865L353.866 246.526C352.958 253.51 351.492 260.354 349.467 266.989L349.397 266.919Z" fill="#DD375F"/>
<path d="M252.393 109.296L270.131 5.72671C257.491 3.56174 244.641 2.44439 231.511 2.44439L231.511 107.55C238.565 107.55 245.548 108.108 252.323 109.296L252.393 109.296Z" fill="#DD375F"/>
<path d="M454.712 182.695L352.051 204.833C352.4 206.509 352.749 208.255 353.098 209.931C354.006 215.169 354.495 220.407 354.704 225.575L459.67 221.105C459.251 211.538 458.203 201.9 456.597 192.193C456.039 188.98 455.41 185.838 454.712 182.695Z" fill="#DD375F"/>
<path d="M330.61 304.142L415.114 366.577C422.796 356.171 429.57 345.137 435.436 333.614L342 286.5C338.857 292.716 335.215 298.843 331.095 304.5L330.61 304.142Z" fill="#DD375F"/>
<path d="M263.147 350.654L289.616 452.337C302.326 449.055 314.548 444.725 326.141 439.487L282.842 343.74C276.556 346.603 269.992 348.908 263.078 350.654L263.147 350.654Z" fill="#DD375F"/>
<path d="M301.209 333.474L360.012 420.561C370.767 413.298 380.824 405.127 390.112 396.188L317.411 320.344C312.383 325.163 306.936 329.563 301.139 333.474L301.209 333.474Z" fill="#DD375F"/>
<path d="M291.641 123.193L342.902 31.4967C331.658 25.2113 319.856 19.8339 307.634 15.5039L272.645 114.603C279.28 116.978 285.635 119.841 291.711 123.263L291.641 123.193Z" fill="#DD375F"/>
<path d="M324.116 149.382L402.962 79.9639C394.372 70.2565 385.014 61.3174 374.957 53.2162L308.961 134.926C314.408 139.326 319.436 144.145 324.046 149.382L324.116 149.382Z" fill="#DD375F"/>
<path d="M345.975 184.86L443.468 145.681C438.579 133.529 432.783 122.006 426.078 111.111L336.616 166.213C340.248 172.08 343.391 178.365 346.045 184.86L345.975 184.86Z" fill="#DD375F"/>
<path d="M232 4.83825e-05C359.942 5.95675e-05 464 104.058 464 232C464 359.942 359.942 464 232 464C104.058 464 9.09702e-06 359.942 2.02821e-05 232C3.14671e-05 104.058 104.058 3.71974e-05 232 4.83825e-05ZM232 456.667C355.892 456.737 456.737 355.892 456.737 232C456.737 108.108 355.962 7.33301 232.07 7.333C108.178 7.33298 7.40283 108.108 7.40282 232C7.40281 355.892 108.108 456.737 232 456.737L232 456.667Z" fill="#131624"/>
<path d="M169.286 414.346L176.968 417.209L176.06 419.653L173.616 418.745L170.892 426.078L173.337 426.986L172.499 429.291C172.149 429.151 171.8 429.081 171.381 429.011C171.032 428.942 170.683 428.942 170.403 429.011C170.124 429.011 169.845 429.221 169.565 429.43C169.356 429.64 169.146 429.919 169.007 430.269L166.493 429.291L170.753 417.768L168.378 416.86L169.286 414.415L169.286 414.346Z" fill="white"/>
<path d="M157.134 415.184C157.414 414.485 157.763 413.857 158.182 413.298C158.601 412.739 159.09 412.32 159.718 412.041C160.277 411.762 160.906 411.552 161.534 411.552C162.163 411.552 162.931 411.622 163.769 411.971C164.607 412.32 165.375 412.669 165.934 413.089C166.493 413.508 166.912 413.857 167.261 414.206L166.143 417.279L165.864 417.279C165.864 417.279 165.654 416.86 165.515 416.65C165.375 416.441 165.166 416.231 164.956 416.022C164.747 415.812 164.467 415.603 164.258 415.393C163.978 415.184 163.699 415.044 163.35 414.904C163.071 414.765 162.721 414.695 162.302 414.695C161.883 414.695 161.604 414.695 161.255 414.904C161.045 415.044 160.836 415.184 160.626 415.393C160.487 415.603 160.277 415.882 160.137 416.301C159.998 416.65 159.998 416.93 159.998 417.209C159.998 417.488 160.067 417.698 160.207 417.907C160.417 418.187 160.696 418.466 161.045 418.676C161.394 418.885 161.744 419.025 161.953 419.095C162.372 419.234 162.791 419.374 163.28 419.444C163.699 419.514 164.118 419.583 164.397 419.583L164.677 419.583L161.813 427.475L154.131 424.612L155.109 421.958L160.067 423.774L160.906 421.469C160.906 421.469 160.556 421.399 160.347 421.329C160.137 421.259 159.928 421.19 159.858 421.19C159.299 420.98 158.81 420.701 158.391 420.421C157.972 420.142 157.623 419.723 157.344 419.304C156.995 418.815 156.855 418.187 156.855 417.558C156.855 416.86 156.995 416.161 157.274 415.323L157.134 415.184Z" fill="white"/>
<path d="M138.907 400.797L146.03 404.918L144.703 407.152L142.468 405.825L138.558 412.6L140.792 413.927L139.605 416.022C139.605 416.022 138.907 415.672 138.558 415.533C138.208 415.393 137.859 415.323 137.65 415.323C137.37 415.323 137.021 415.393 136.812 415.533C136.532 415.672 136.323 415.952 136.113 416.301L133.739 414.974L139.884 404.359L137.65 403.102L138.977 400.867L138.907 400.797Z" fill="white"/>
<path d="M125.219 402.403C125.847 401.286 126.545 400.378 127.244 399.61C127.942 398.842 128.78 398.213 129.618 397.864C130.456 397.445 131.294 397.305 132.202 397.305C133.11 397.305 134.018 397.654 134.996 398.213C135.345 398.423 135.694 398.632 135.974 398.911C136.323 399.191 136.532 399.331 136.602 399.47L135.135 401.984L134.926 401.845C134.926 401.845 134.716 401.495 134.507 401.286C134.297 401.076 134.018 400.797 133.529 400.588C133.18 400.378 132.831 400.238 132.412 400.169C131.993 400.099 131.644 400.169 131.294 400.169C130.875 400.308 130.526 400.448 130.107 400.797C129.688 401.076 129.339 401.495 128.92 402.054C129.479 402.054 129.967 401.984 130.387 402.054C130.806 402.054 131.225 402.264 131.713 402.543C132.063 402.753 132.412 403.032 132.691 403.311C132.971 403.591 133.18 404.01 133.32 404.429C133.459 404.987 133.529 405.616 133.459 406.244C133.39 406.943 133.04 407.711 132.551 408.549C132.132 409.247 131.713 409.806 131.225 410.225C130.736 410.714 130.177 410.993 129.548 411.273C128.99 411.482 128.361 411.552 127.733 411.482C127.104 411.482 126.476 411.203 125.847 410.854C125.219 410.505 124.73 410.085 124.38 409.597C124.031 409.108 123.752 408.549 123.682 407.921C123.542 407.222 123.682 406.384 123.822 405.476C124.031 404.568 124.52 403.591 125.149 402.473L125.219 402.403ZM127.593 404.429C127.174 405.127 126.895 405.756 126.755 406.244C126.615 406.733 126.545 407.152 126.545 407.571C126.545 407.851 126.615 408.06 126.755 408.2C126.895 408.34 127.034 408.479 127.174 408.619C127.314 408.689 127.523 408.759 127.733 408.759C127.942 408.759 128.152 408.759 128.431 408.619C128.641 408.549 128.92 408.34 129.199 408.06C129.479 407.781 129.758 407.432 129.967 407.082C130.177 406.663 130.387 406.314 130.456 405.965C130.456 405.616 130.456 405.337 130.456 405.127C130.456 404.918 130.247 404.708 130.107 404.498C129.967 404.289 129.758 404.149 129.479 404.01C129.269 403.87 129.06 403.8 128.78 403.73C128.501 403.73 128.291 403.66 128.152 403.66C128.152 403.66 128.082 403.8 128.012 403.94C127.942 404.079 127.803 404.219 127.733 404.498L127.593 404.429Z" fill="white"/>
<path d="M104.407 380.893L105.734 381.941L107.969 379.217L110.273 381.173L108.038 383.896L112.229 387.388L110.483 389.553L100.845 392.766L98.4708 390.81L104.058 384.106L102.731 383.058L104.407 381.033L104.407 380.893ZM106.293 385.922L103.08 389.833L108.737 387.947L106.293 385.922Z" fill="white"/>
<path d="M86.9476 359.523L92.8838 366.437L91.068 368.043C90.0204 367.904 89.0427 367.834 88.1348 367.834C87.227 367.834 86.3889 367.834 85.6905 367.834C84.7128 367.834 83.9446 367.974 83.3161 368.113C82.6875 368.253 82.1288 368.532 81.7098 368.951C81.1511 369.37 80.8718 369.859 80.8019 370.348C80.8019 370.837 80.9416 371.326 81.2908 371.815C81.5003 372.024 81.7098 372.234 81.9891 372.373C82.2685 372.513 82.5478 372.653 82.8272 372.792C83.1065 372.932 83.3859 373.002 83.6652 373.002C83.9446 373.002 84.0843 373.072 84.2239 373.141L84.3636 373.351L81.9193 375.446C81.5701 375.306 81.0114 375.027 80.3829 374.608C79.7543 374.189 79.1956 373.7 78.7766 373.141C77.7989 372.024 77.3799 370.907 77.5195 369.859C77.5894 368.742 78.2179 367.764 79.2655 366.856C79.9639 366.297 80.6622 365.878 81.5701 365.599C82.4082 365.32 83.5256 365.18 84.7128 365.11C85.481 365.11 86.1794 365.11 86.8778 365.18C87.5063 365.18 87.9952 365.32 88.2745 365.32L84.8525 361.339L86.9476 359.523Z" fill="white"/>
<path d="M80.2432 351.701L85.5509 357.917L83.5954 359.593L81.9194 357.638L75.9832 362.736L77.6593 364.691L75.8435 366.297C75.8435 366.297 75.3546 365.739 75.0054 365.459C74.7261 365.18 74.4467 365.04 74.1674 364.97C73.888 364.901 73.6087 364.831 73.2595 364.97C72.9801 364.97 72.631 365.18 72.3516 365.459L70.6057 363.364L79.9639 355.333L78.2878 353.377L80.2432 351.701Z" fill="white"/>
<path d="M64.5997 328.585L69.2788 336.407L67.1837 337.664C66.1361 337.385 65.2282 337.105 64.3204 336.966C63.4125 336.756 62.6442 336.616 61.876 336.547C60.8983 336.407 60.1301 336.407 59.5016 336.477C58.873 336.477 58.3143 336.756 57.7556 337.036C57.1271 337.385 56.7779 337.804 56.6382 338.293C56.4985 338.781 56.6382 339.27 56.9176 339.829C57.0573 340.108 57.2668 340.318 57.4763 340.527C57.6858 340.737 57.9652 340.877 58.2445 341.086C58.5239 341.226 58.8032 341.365 59.0127 341.435C59.2222 341.505 59.4317 341.575 59.5714 341.645L59.7111 341.854L56.9176 343.53C56.5684 343.321 56.0795 342.972 55.5208 342.413C54.9621 341.854 54.4733 341.296 54.1241 340.737C53.3559 339.48 53.1464 338.293 53.4257 337.245C53.7051 336.197 54.4733 335.29 55.6605 334.591C56.4287 334.172 57.2668 333.823 58.1048 333.683C59.0127 333.544 60.0603 333.544 61.3173 333.753C62.0856 333.893 62.7839 334.033 63.4125 334.172C64.041 334.312 64.5299 334.452 64.8092 334.521L62.0856 329.982L64.46 328.515L64.5997 328.585Z" fill="white"/>
<path d="M52.0987 302.885L55.6604 311.265L53.4256 312.173C52.4479 311.754 51.54 311.405 50.7019 311.056C49.8639 310.707 49.0957 310.497 48.3973 310.288C47.4894 310.008 46.6514 309.869 46.0229 309.869C45.3943 309.869 44.7658 309.939 44.2071 310.218C43.5785 310.497 43.1595 310.846 42.95 311.335C42.7405 311.824 42.7405 312.313 42.95 312.872C43.0897 313.151 43.2293 313.43 43.4388 313.64C43.6484 313.849 43.8579 314.059 44.1372 314.268C44.4166 314.478 44.6261 314.618 44.8356 314.757C45.0451 314.897 45.2546 314.967 45.3245 315.037L45.3245 315.246L42.4611 316.503C42.1119 316.224 41.7628 315.805 41.2739 315.246C40.785 314.618 40.4359 313.989 40.1565 313.361C39.5978 312.034 39.528 310.846 39.947 309.799C40.366 308.821 41.2739 308.053 42.531 307.494C43.369 307.145 44.2071 307.005 45.115 306.936C46.0228 306.936 47.0704 307.075 48.2576 307.494C49.0259 307.704 49.6544 307.983 50.2829 308.193C50.9115 308.402 51.3305 308.612 51.6098 308.751L49.5846 303.933L52.1685 302.815L52.0987 302.885Z" fill="white"/>
<path d="M43.2992 295.063C43.9976 294.784 44.696 294.574 45.3944 294.505C46.0927 294.505 46.7213 294.505 47.3498 294.784C47.9783 294.993 48.4672 295.343 48.9561 295.762C49.4449 296.181 49.864 296.809 50.1433 297.647C50.4925 298.485 50.702 299.253 50.7719 299.952C50.8417 300.65 50.9115 301.209 50.8417 301.698L47.8387 302.955L47.699 302.675C47.699 302.675 47.7688 302.256 47.8387 302.047C47.8387 301.837 47.9085 301.558 47.9085 301.209C47.9085 300.86 47.9085 300.58 47.9085 300.231C47.9085 299.952 47.7688 299.603 47.6292 299.253C47.4895 298.974 47.3498 298.625 47.0704 298.346C46.8609 298.066 46.5816 297.857 46.2324 297.717C45.9531 297.647 45.7435 297.577 45.4642 297.647C45.1848 297.647 44.9055 297.717 44.4865 297.927C44.1373 298.066 43.9278 298.206 43.7183 298.415C43.5087 298.625 43.4389 298.834 43.3691 299.114C43.2992 299.463 43.2992 299.812 43.3691 300.231C43.4389 300.65 43.5786 300.93 43.7183 301.209C43.9278 301.628 44.1373 302.047 44.3468 302.396C44.6261 302.745 44.8356 303.095 45.0452 303.304L45.0452 303.583L37.4329 306.796L34.2204 299.184L36.8044 298.066L38.8296 302.955L41.1343 301.977C41.1343 301.977 40.9946 301.628 40.8549 301.418C40.7851 301.209 40.7153 301.069 40.6454 300.93C40.4359 300.371 40.2962 299.812 40.2264 299.323C40.2264 298.765 40.2264 298.276 40.2962 297.857C40.4359 297.298 40.7851 296.739 41.2041 296.25C41.693 295.762 42.3215 295.343 43.1596 294.993L43.2992 295.063Z" fill="white"/>
<path d="M42.531 273.134L44.4166 281.096L41.9025 281.654L41.274 279.07L33.6617 280.816L34.2902 283.4L31.9157 283.959C31.8459 283.61 31.7062 283.191 31.5666 282.842C31.4269 282.492 31.2872 282.213 31.0777 282.004C30.8682 281.794 30.5888 281.654 30.3095 281.515C30.0301 281.445 29.6809 281.445 29.2619 281.515L28.6334 278.861L40.6454 276.067L40.0867 273.553L42.6009 272.995L42.531 273.134Z" fill="white"/>
<path d="M28.4238 264.963L41.2041 267.408L41.9723 270.76L28.9825 268.106L30.3094 273.902L27.5858 274.531L25.4906 265.662L28.354 264.963L28.4238 264.963Z" fill="white"/>
<path d="M34.4299 240.8C35.1283 240.8 35.8266 240.939 36.3853 241.149C37.0139 241.358 37.5027 241.707 37.9218 242.126C38.3408 242.545 38.69 243.104 38.8995 243.663C39.109 244.222 39.2487 244.99 39.2487 245.828C39.2487 246.806 39.1788 247.644 38.9693 248.342C38.7598 249.04 38.5503 249.599 38.3408 250.018L35.1282 250.018L35.1282 249.739C35.4774 249.25 35.7568 248.761 36.0361 248.132C36.3155 247.504 36.3853 246.945 36.3853 246.456C36.3853 246.177 36.3853 245.828 36.3155 245.479C36.2456 245.129 36.106 244.85 35.8965 244.571C35.7568 244.361 35.5473 244.222 35.2679 244.152C35.0584 244.012 34.7092 244.012 34.2204 244.012C33.7315 244.012 33.4521 244.082 33.2426 244.222C33.0331 244.361 32.8236 244.571 32.7538 244.85C32.6141 245.129 32.5443 245.409 32.5443 245.828C32.5443 246.177 32.5443 246.526 32.5443 246.806L32.5443 247.364L29.9603 247.364L29.9603 246.875C29.9603 246.526 29.9603 246.177 29.9603 245.828C29.9603 245.479 29.8206 245.269 29.7508 244.99C29.6111 244.78 29.4714 244.571 29.1921 244.501C28.9826 244.361 28.6334 244.291 28.2842 244.291C28.0048 244.291 27.7255 244.291 27.5858 244.501C27.3763 244.641 27.2366 244.78 27.1668 244.92C27.0271 245.129 26.9573 245.339 26.9573 245.618C26.9573 245.898 26.9573 246.107 26.9573 246.317C26.9573 246.596 26.9573 246.945 27.0969 247.225C27.1668 247.574 27.3065 247.853 27.4461 248.132C27.5858 248.342 27.6556 248.621 27.8651 248.901C28.0048 249.18 28.1445 249.32 28.2842 249.459L28.2842 249.739L25.0717 249.739C24.8622 249.32 24.6526 248.761 24.4431 247.993C24.2336 247.294 24.1638 246.526 24.1638 245.758C24.1638 244.99 24.2336 244.361 24.3733 243.803C24.513 243.244 24.7225 242.825 25.0717 242.406C25.351 241.987 25.77 241.638 26.2589 241.428C26.7478 241.219 27.3064 241.079 27.8651 241.079C28.7032 241.079 29.4714 241.288 30.0999 241.707C30.7285 242.126 31.1475 242.685 31.357 243.314L31.4967 243.314C31.4967 243.314 31.6364 242.755 31.7761 242.476C31.9157 242.196 32.1252 241.917 32.4046 241.638C32.6839 241.358 33.0331 241.149 33.3823 241.009C33.8013 240.869 34.2902 240.73 34.8489 240.73L34.4299 240.8Z" fill="white"/>
<path d="M35.4774 229.486L35.4774 231.162L38.9692 231.162L38.9692 234.165L35.4774 234.165L35.4774 239.612L32.6839 239.612L24.0939 234.235L24.0939 231.092L32.8235 231.092L32.8235 229.416L35.4774 229.416L35.4774 229.486ZM32.8235 234.165L27.7953 234.165L32.8235 237.308L32.8235 234.165Z" fill="white"/>
<path d="M35.5472 200.503C37.0837 200.643 38.3407 201.202 39.2486 202.179C40.1565 203.087 40.5057 204.275 40.366 205.741C40.2962 206.44 40.0867 207.068 39.8073 207.627C39.528 208.185 39.109 208.604 38.5503 208.954C37.9217 209.373 37.1535 209.652 36.2456 209.792C35.3377 209.931 34.2203 209.931 32.9632 209.792C31.6363 209.652 30.5189 209.373 29.5412 209.024C28.5635 208.674 27.7254 208.185 27.0271 207.627C26.3287 207.068 25.8398 206.3 25.4906 205.462C25.1415 204.624 25.0716 203.646 25.2113 202.529C25.2113 202.11 25.351 201.76 25.4208 201.341C25.5605 200.922 25.6303 200.643 25.7002 200.503L28.6333 200.853L28.6333 201.062C28.6333 201.062 28.354 201.411 28.2143 201.76C28.0746 202.11 28.0048 202.459 27.935 202.878C27.7953 203.856 28.0746 204.624 28.5635 205.252C29.1222 205.811 29.9602 206.23 31.0776 206.509C30.7983 206.09 30.5888 205.601 30.4491 205.182C30.3094 204.763 30.2396 204.275 30.3094 203.716C30.3094 203.297 30.4491 202.878 30.6586 202.459C30.8681 202.11 31.0777 201.76 31.4268 201.481C31.8459 201.132 32.4045 200.853 33.1029 200.643C33.8013 200.433 34.5695 200.433 35.6171 200.503L35.5472 200.503ZM37.363 204.344C37.363 204.344 36.8741 203.995 36.5948 203.856C36.3154 203.716 35.8964 203.646 35.3377 203.576C34.8489 203.576 34.4298 203.576 34.1505 203.576C33.8013 203.576 33.5918 203.786 33.3823 203.925C33.1728 204.065 33.0331 204.275 32.9632 204.484C32.8934 204.694 32.8236 204.973 32.7537 205.182C32.7537 205.392 32.7537 205.601 32.7537 205.881C32.7537 206.09 32.8236 206.37 32.8934 206.579C32.8934 206.579 33.1029 206.579 33.2426 206.579C33.3823 206.579 33.5918 206.579 33.8013 206.649C34.6394 206.719 35.3377 206.789 35.8964 206.649C36.4551 206.649 36.8043 206.44 37.1535 206.3C37.363 206.16 37.5725 206.02 37.6424 205.881C37.782 205.671 37.8519 205.532 37.8519 205.322C37.8519 205.182 37.8519 204.973 37.782 204.763C37.7122 204.554 37.5725 204.344 37.363 204.205L37.363 204.344Z" fill="white"/>
<path d="M47.3499 173.895L44.8357 182.695L42.5311 181.996C42.0422 181.019 41.5533 180.181 41.1343 179.412C40.6455 178.644 40.2264 177.946 39.8074 177.317C39.2487 176.549 38.69 175.921 38.2011 175.502C37.7123 175.082 37.2234 174.803 36.5949 174.594C35.8965 174.384 35.4077 174.454 34.9188 174.594C34.4998 174.803 34.1506 175.222 34.0109 175.851C33.9411 176.13 33.8712 176.479 33.8712 176.759C33.8712 177.038 33.8712 177.387 34.0109 177.666C34.0109 177.946 34.1506 178.225 34.2903 178.505C34.3601 178.714 34.4299 178.924 34.4998 179.063L34.4998 179.273L31.2872 178.365C31.2174 177.946 31.1476 177.387 31.1476 176.619C31.1476 175.851 31.2174 175.152 31.4269 174.454C31.846 173.057 32.5443 172.079 33.4522 171.591C34.4299 171.102 35.6172 171.032 36.9441 171.381C37.7821 171.591 38.5503 172.01 39.2487 172.568C39.9471 173.127 40.6455 173.965 41.3438 174.943C41.7629 175.571 42.112 176.2 42.4612 176.759C42.7406 177.317 43.0199 177.736 43.0898 178.016L44.5563 172.987L47.28 173.756L47.3499 173.895Z" fill="white"/>
<path d="M38.8296 160.417L48.8164 168.797L47.8387 172.149L37.7821 163.489L36.1758 169.146L33.4522 168.378L35.9663 159.579L38.8296 160.417Z" fill="white"/>
<path d="M57.6858 145.541L54.1241 152.944L51.8194 151.827L52.9368 149.452L45.8832 146.03L44.7658 148.405L42.6009 147.357C42.6009 147.357 42.8802 146.659 43.0199 146.309C43.1596 145.96 43.1596 145.611 43.1596 145.332C43.1596 145.052 43.0199 144.773 42.8802 144.494C42.6707 144.214 42.4612 144.005 42.112 143.795L43.2992 141.351L54.4034 146.729L55.5208 144.424L57.8254 145.541L57.6858 145.541Z" fill="white"/>
<path d="M58.5238 133.529C59.1524 133.809 59.711 134.228 60.1301 134.716C60.5491 135.205 60.8983 135.694 61.038 136.253C61.2475 136.812 61.3173 137.44 61.2475 138.069C61.2475 138.697 60.9681 139.396 60.619 140.164C60.1999 141.002 59.7809 141.77 59.292 142.259C58.8032 142.818 58.3842 143.237 57.9651 143.516L55.0319 142.119L55.1716 141.84C55.6605 141.561 56.1494 141.211 56.7081 140.792C57.1969 140.373 57.5461 139.884 57.7556 139.465C57.8953 139.186 57.9651 138.907 58.1048 138.558C58.1746 138.208 58.1746 137.859 58.1048 137.58C58.1048 137.37 57.8953 137.091 57.7556 136.881C57.6159 136.672 57.3366 136.462 56.9176 136.253C56.4985 136.043 56.2192 135.974 55.9398 136.043C55.6605 136.043 55.3811 136.183 55.1716 136.393C54.9621 136.602 54.7526 136.812 54.6129 137.161C54.4733 137.51 54.2637 137.789 54.1939 138.069L53.9844 138.558L51.6099 137.44L51.8194 137.021C51.8194 137.021 52.0988 136.393 52.2385 136.043C52.3083 135.764 52.3781 135.485 52.3781 135.205C52.3781 134.926 52.3083 134.716 52.0988 134.507C51.9591 134.297 51.6798 134.088 51.3306 133.948C51.0512 133.809 50.8417 133.739 50.5623 133.809C50.3528 133.809 50.1433 133.878 50.0037 134.018C49.7942 134.158 49.6545 134.297 49.5148 134.577C49.3751 134.786 49.2354 134.996 49.1656 135.135C49.0259 135.415 48.9561 135.694 48.8863 136.043C48.8863 136.393 48.8164 136.672 48.8164 137.021C48.8164 137.3 48.8164 137.58 48.8164 137.859C48.8164 138.138 48.8863 138.418 48.8863 138.558L48.7466 138.767L45.8833 137.37C45.8833 136.881 45.8832 136.253 46.0928 135.555C46.2324 134.786 46.4419 134.088 46.7911 133.39C47.1403 132.691 47.4895 132.202 47.8387 131.783C48.1879 131.364 48.6069 131.015 49.0259 130.806C49.5148 130.596 50.0037 130.456 50.4925 130.456C51.0512 130.456 51.5401 130.596 52.0988 130.875C52.867 131.225 53.4257 131.713 53.8447 132.412C54.2637 133.04 54.4034 133.739 54.2638 134.367L54.4034 134.367C54.4034 134.367 54.8224 133.948 55.0319 133.739C55.2415 133.529 55.5906 133.39 55.9398 133.25C56.289 133.11 56.6382 133.11 57.1271 133.11C57.5461 133.11 58.035 133.25 58.5238 133.529Z" fill="white"/>
<path d="M72.212 114.184C72.7707 114.603 73.2595 115.092 73.6087 115.581C73.9579 116.14 74.1674 116.698 74.3071 117.257C74.3769 117.886 74.3071 118.444 74.1674 119.073C74.0277 119.701 73.6785 120.33 73.1897 121.028C72.631 121.797 72.0723 122.425 71.5136 122.914C70.9549 123.333 70.466 123.682 69.9772 123.892L67.3233 122.006L67.463 121.797C68.0217 121.657 68.5804 121.377 69.1391 121.028C69.6978 120.679 70.1168 120.26 70.3962 119.911C70.5358 119.701 70.7454 119.352 70.885 119.073C71.0247 118.724 71.0946 118.444 71.0946 118.095C71.0946 117.816 70.9549 117.606 70.885 117.397C70.7454 117.187 70.5358 116.908 70.1168 116.629C69.7676 116.349 69.4184 116.279 69.1391 116.21C68.8597 116.21 68.5804 116.21 68.3709 116.419C68.0915 116.559 67.882 116.768 67.6725 117.117C67.463 117.397 67.2535 117.676 67.1138 117.886L66.8345 118.305L64.7394 116.768L65.0187 116.349C65.0187 116.349 65.4377 115.721 65.5774 115.441C65.7171 115.162 65.7869 114.883 65.8568 114.673C65.8568 114.394 65.8567 114.184 65.7171 113.975C65.5774 113.765 65.3679 113.486 65.0885 113.276C64.8092 113.137 64.5997 112.997 64.3901 112.997C64.1806 112.997 63.9711 112.997 63.7616 113.067C63.5521 113.137 63.3426 113.276 63.1331 113.486C62.9236 113.695 62.7839 113.835 62.7141 113.975C62.5045 114.254 62.3649 114.533 62.295 114.813C62.1554 115.092 62.0855 115.441 62.0157 115.79C62.0157 116.07 61.9458 116.349 61.9458 116.629C61.9458 116.908 61.9458 117.187 61.9458 117.327L61.8062 117.536L59.2222 115.721C59.2222 115.232 59.4317 114.673 59.711 113.975C59.9904 113.276 60.3396 112.578 60.7586 112.019C61.1776 111.391 61.5967 110.972 62.0855 110.553C62.5045 110.203 62.9934 109.924 63.4124 109.784C63.9013 109.645 64.3902 109.575 64.9489 109.715C65.4377 109.854 65.9964 110.064 66.4853 110.413C67.1837 110.902 67.6725 111.53 67.9519 112.229C68.2312 112.927 68.2312 113.626 67.9519 114.254L68.0915 114.254C68.0915 114.254 68.5106 113.975 68.7899 113.765C69.0693 113.626 69.3486 113.486 69.7676 113.486C70.1168 113.486 70.5359 113.486 70.9549 113.556C71.3739 113.626 71.7929 113.905 72.2818 114.184L72.212 114.184Z" fill="white"/>
<path d="M78.218 104.826C79.475 105.734 80.3131 106.851 80.6623 108.108C81.0115 109.365 80.7321 110.553 79.8941 111.74C79.4751 112.299 78.9862 112.787 78.4973 113.067C77.9386 113.416 77.3799 113.556 76.7514 113.626C75.9832 113.626 75.215 113.556 74.3071 113.207C73.3992 112.857 72.4913 112.368 71.4438 111.6C70.3962 110.832 69.4883 110.064 68.7899 109.296C68.0916 108.527 67.6027 107.689 67.2535 106.781C66.9741 105.943 66.8345 105.036 66.9742 104.128C67.1138 103.22 67.5329 102.312 68.1614 101.404C68.3709 101.055 68.6503 100.775 68.9296 100.426C69.209 100.147 69.4185 99.9374 69.5581 99.8676L71.9326 101.544L71.7929 101.753C71.7929 101.753 71.4438 101.963 71.1644 102.172C70.8851 102.382 70.6057 102.661 70.3962 103.01C69.8375 103.778 69.628 104.617 69.8375 105.385C70.047 106.153 70.5359 106.921 71.4438 107.689C71.4438 107.2 71.4438 106.712 71.5834 106.223C71.6533 105.804 71.8628 105.315 72.212 104.896C72.4913 104.547 72.7707 104.267 73.1198 103.988C73.469 103.778 73.8182 103.569 74.2372 103.499C74.7959 103.359 75.4245 103.429 76.053 103.499C76.7514 103.639 77.4498 104.058 78.2878 104.617L78.218 104.826ZM77.9386 109.086C77.9386 109.086 77.7291 108.597 77.5196 108.318C77.3101 108.108 77.0308 107.829 76.5419 107.48C76.1229 107.2 75.7737 106.991 75.4943 106.921C75.215 106.851 74.8658 106.781 74.6563 106.851C74.3769 106.851 74.1674 106.991 73.9579 107.131C73.7484 107.27 73.6087 107.48 73.4691 107.689C73.3294 107.899 73.2595 108.039 73.1897 108.318C73.1199 108.527 73.05 108.737 73.05 109.016C73.05 109.016 73.1897 109.086 73.3294 109.226C73.469 109.296 73.6087 109.435 73.8182 109.575C74.5166 110.064 75.0753 110.413 75.634 110.623C76.1229 110.832 76.5419 110.902 76.8911 110.902C77.1704 110.902 77.3799 110.902 77.5196 110.762C77.7291 110.692 77.8688 110.553 77.9386 110.343C78.0085 110.204 78.0783 110.064 78.1481 109.784C78.1481 109.575 78.1482 109.365 78.0783 109.156L77.9386 109.086Z" fill="white"/>
<path d="M97.9122 92.1854L91.976 97.8423L90.1603 95.9567L92.0459 94.1409L86.6684 88.4142L84.7828 90.23L83.1067 88.4841C83.1067 88.4841 83.6654 87.9254 83.8749 87.646C84.0844 87.3667 84.2939 87.0873 84.3637 86.808C84.4336 86.5286 84.4336 86.1794 84.3637 85.9001C84.2939 85.6207 84.0844 85.2715 83.8749 84.9922L85.8303 83.1066L94.2807 92.0458L96.1663 90.2999L97.9821 92.1854L97.9122 92.1854Z" fill="white"/>
<path d="M105.804 84.7128L99.8676 90.3697L98.0518 88.4841L99.9375 86.6683L94.56 80.9416L92.6744 82.7574L90.9983 81.0115C90.9983 81.0115 91.557 80.4528 91.7665 80.1734C91.976 79.8941 92.1855 79.6147 92.2554 79.3354C92.3252 79.056 92.3252 78.7068 92.2554 78.4275C92.1855 78.1481 91.976 77.7989 91.7665 77.5196L93.7219 75.634L102.172 84.5732L104.058 82.8272L105.874 84.7128L105.804 84.7128Z" fill="white"/>
<path d="M120.051 68.0217C120.47 68.6502 120.679 69.2788 120.819 69.9073C120.959 70.5358 120.959 71.1644 120.819 71.7231C120.679 72.2818 120.4 72.8405 120.051 73.3992C119.701 73.888 119.143 74.3769 118.444 74.8658C117.606 75.4245 116.908 75.7736 116.21 75.9832C115.511 76.1927 114.952 76.3324 114.464 76.3324L112.718 73.6087L112.997 73.469C113.556 73.469 114.184 73.469 114.813 73.3294C115.441 73.1897 116 72.9802 116.419 72.7008C116.698 72.5611 116.908 72.3516 117.187 72.0723C117.467 71.7929 117.606 71.5834 117.676 71.2342C117.676 71.0247 117.746 70.7454 117.676 70.466C117.676 70.1867 117.467 69.9073 117.257 69.4883C117.048 69.1391 116.768 68.8597 116.489 68.7899C116.21 68.6502 115.93 68.6502 115.651 68.7201C115.371 68.7201 115.092 68.8598 114.743 69.0693C114.394 69.2788 114.114 69.4185 113.905 69.5581L113.486 69.8375L112.089 67.6725L112.508 67.3932C112.508 67.3932 113.137 66.9741 113.346 66.7646C113.556 66.5551 113.765 66.3456 113.905 66.1361C114.045 65.9266 114.045 65.6472 114.045 65.4377C114.045 65.1584 113.905 64.879 113.695 64.5997C113.556 64.3203 113.346 64.1807 113.137 64.1108C112.927 64.041 112.718 63.9711 112.508 63.9711C112.299 63.9711 112.019 63.9711 111.81 64.1806C111.53 64.3203 111.391 64.3901 111.181 64.5298C110.902 64.6695 110.692 64.879 110.483 65.1584C110.273 65.3679 110.064 65.6472 109.854 65.9266C109.715 66.1361 109.575 66.4154 109.435 66.6948C109.296 66.9741 109.226 67.1837 109.156 67.3233L108.946 67.463L107.201 64.8092C107.41 64.3902 107.829 63.9013 108.318 63.3426C108.807 62.7839 109.365 62.295 109.994 61.876C110.623 61.457 111.181 61.1776 111.74 61.0379C112.299 60.8983 112.788 60.8284 113.276 60.8284C113.835 60.8284 114.254 61.038 114.743 61.3173C115.162 61.5967 115.581 62.0157 115.86 62.5045C116.349 63.2029 116.559 63.9711 116.559 64.6695C116.559 65.4377 116.349 66.0663 115.86 66.5551L115.86 66.6948C116.21 66.5551 116.489 66.4853 116.838 66.4853C117.117 66.4853 117.467 66.4853 117.886 66.5551C118.235 66.625 118.584 66.8345 118.933 67.044C119.282 67.3233 119.632 67.6725 119.911 68.1614L120.051 68.0217Z" fill="white"/>
<path d="M127.733 59.5714C128.431 60.6189 128.99 61.6665 129.339 62.5744C129.688 63.4823 129.898 64.3203 129.968 65.0187C129.968 65.7869 129.828 66.4154 129.549 67.044C129.199 67.6725 128.71 68.1614 127.942 68.6502C127.244 69.1391 126.476 69.4185 125.777 69.4185C125.079 69.4185 124.381 69.3486 123.752 68.9994C123.054 68.6502 122.425 68.1614 121.727 67.3932C121.098 66.6948 120.4 65.7869 119.701 64.7394C119.003 63.622 118.444 62.6442 118.095 61.7363C117.746 60.8983 117.536 60.0602 117.536 59.292C117.536 58.5238 117.676 57.8254 118.025 57.2667C118.375 56.6382 118.863 56.1493 119.562 55.6605C120.33 55.1716 121.028 54.8923 121.727 54.8923C122.425 54.8923 123.123 55.032 123.752 55.3811C124.45 55.7303 125.079 56.2192 125.777 56.9874C126.406 57.6858 127.104 58.5936 127.803 59.6412L127.733 59.5714ZM125.079 61.2475C124.101 59.7111 123.263 58.6635 122.635 58.1746C122.006 57.6858 121.447 57.6159 120.959 57.9651C120.47 58.3143 120.33 58.8032 120.47 59.5714C120.679 60.3396 121.238 61.457 122.285 63.0632C123.263 64.5997 124.101 65.5774 124.66 66.0663C125.288 66.5551 125.847 66.625 126.336 66.3456C126.825 65.9964 126.965 65.5076 126.825 64.6695C126.615 63.9013 126.057 62.7141 125.079 61.2475Z" fill="white"/>
<path d="M155.807 48.9561C156.087 49.5148 156.226 50.1433 156.226 50.702C156.226 51.2607 156.226 51.8893 155.947 52.3781C155.738 52.9368 155.388 53.4257 154.9 53.8447C154.411 54.3336 153.852 54.6827 153.154 55.0319C152.385 55.3811 151.687 55.5906 150.989 55.6605C150.29 55.6605 149.732 55.6605 149.173 55.451C148.684 55.2414 148.195 54.9621 147.776 54.5431C147.357 54.124 147.078 53.705 146.798 53.1463C146.449 52.3781 146.31 51.6797 146.449 50.9814C146.589 50.283 146.868 49.6544 147.427 48.9561C146.589 48.8164 145.891 48.5371 145.402 48.118C144.913 47.699 144.494 47.1403 144.145 46.4419C143.935 45.9531 143.795 45.4642 143.795 44.9055C143.795 44.4167 143.865 43.8579 144.075 43.3691C144.284 42.8802 144.564 42.3914 145.052 41.9723C145.471 41.5533 146.03 41.1343 146.729 40.8549C147.427 40.5057 148.055 40.3661 148.684 40.2962C149.313 40.2962 149.801 40.2962 150.29 40.4359C150.779 40.5756 151.198 40.7851 151.547 41.1343C151.897 41.4835 152.246 41.9025 152.455 42.3914C152.735 43.0199 152.874 43.6484 152.804 44.3468C152.735 44.9753 152.455 45.6737 151.966 46.3022C152.874 46.3022 153.642 46.5816 154.271 47.0006C154.9 47.4197 155.388 48.0482 155.807 48.8862L155.807 48.9561ZM153.084 50.4227C152.874 50.0036 152.665 49.6545 152.385 49.5148C152.106 49.3751 151.687 49.2354 150.989 49.1656C150.779 49.1656 150.57 49.1656 150.22 49.1656C149.871 49.1656 149.592 49.1656 149.313 49.1656C149.243 49.5148 149.173 49.8639 149.173 50.283C149.173 50.702 149.243 51.121 149.452 51.5401C149.732 52.1686 150.151 52.5876 150.639 52.7971C151.128 53.0066 151.687 53.0066 152.246 52.7971C152.385 52.7971 152.525 52.5876 152.735 52.4479C152.874 52.3083 153.014 52.1686 153.084 51.9591C153.154 51.7496 153.223 51.5401 153.223 51.2607C153.223 51.0512 153.223 50.7718 153.014 50.4227L153.084 50.4227ZM149.941 44.1373C149.732 43.6484 149.452 43.3691 149.033 43.2294C148.684 43.0897 148.265 43.0897 147.846 43.2294C147.427 43.4389 147.148 43.7183 147.008 44.0674C146.868 44.4166 146.868 44.7658 147.008 45.1848C147.148 45.534 147.357 45.8134 147.636 45.9531C147.916 46.0927 148.195 46.2324 148.614 46.2324C148.824 46.2324 149.033 46.2324 149.243 46.2324C149.452 46.2324 149.801 46.2324 150.151 46.2324C150.151 45.8134 150.151 45.4642 150.151 45.115C150.151 44.7658 150.011 44.4166 149.801 44.0674L149.941 44.1373Z" fill="white"/>
<path d="M182.695 44.3468L173.965 46.9308L173.267 44.6262C173.825 43.7183 174.244 42.8802 174.663 42.0422C175.082 41.274 175.432 40.5057 175.711 39.8074C176.06 38.8995 176.339 38.1313 176.409 37.5027C176.479 36.8742 176.409 36.2457 176.27 35.687C176.06 34.9886 175.781 34.5696 175.292 34.2902C174.873 34.0109 174.314 34.0109 173.755 34.1505C173.476 34.2204 173.197 34.36 172.917 34.5696C172.708 34.7092 172.429 34.9188 172.219 35.1283C172.01 35.3378 171.8 35.5473 171.66 35.7568C171.521 35.9663 171.381 36.106 171.311 36.2457L171.102 36.2457L170.194 33.1728C170.473 32.8935 170.962 32.5443 171.591 32.1253C172.219 31.7062 172.917 31.4269 173.546 31.2174C174.943 30.7983 176.13 30.8682 177.108 31.4269C178.085 31.9856 178.714 32.8935 179.133 34.2902C179.412 35.1283 179.482 36.0362 179.343 36.8742C179.273 37.7821 178.923 38.8296 178.435 39.947C178.155 40.6454 177.806 41.274 177.457 41.9025C177.108 42.4612 176.898 42.8802 176.759 43.1596L181.787 41.693L182.555 44.3468L182.695 44.3468Z" fill="white"/>
<path d="M191.564 37.0138C191.774 37.7122 191.843 38.3408 191.774 39.0391C191.774 39.6677 191.564 40.2264 191.285 40.7851C191.005 41.3438 190.586 41.7628 190.098 42.1818C189.609 42.531 188.91 42.8802 188.142 43.0897C187.234 43.369 186.396 43.5087 185.698 43.5087C184.999 43.5087 184.371 43.5087 183.882 43.369L182.974 40.2962L183.253 40.2962C183.812 40.4359 184.371 40.5756 185.069 40.6454C185.698 40.7152 186.326 40.6454 186.815 40.5057C187.095 40.4359 187.374 40.2962 187.723 40.1565C188.072 40.0169 188.282 39.8073 188.491 39.528C188.631 39.3185 188.701 39.109 188.771 38.8296C188.771 38.5503 188.771 38.2011 188.631 37.7821C188.491 37.363 188.352 37.0837 188.142 36.8742C187.933 36.6647 187.653 36.5948 187.374 36.5948C187.094 36.5948 186.745 36.5948 186.396 36.6647C186.047 36.7345 185.698 36.8742 185.418 36.944L184.93 37.0837L184.161 34.5695L184.65 34.4299C184.999 34.2902 185.349 34.2203 185.628 34.0807C185.907 33.941 186.187 33.8013 186.326 33.5918C186.536 33.3823 186.606 33.1728 186.675 32.9633C186.675 32.6839 186.675 32.4046 186.606 32.0554C186.536 31.776 186.396 31.5665 186.256 31.4269C186.117 31.2872 185.907 31.1475 185.698 31.1475C185.488 31.1475 185.209 31.1475 184.93 31.1475C184.65 31.1475 184.441 31.2173 184.231 31.2872C183.952 31.357 183.672 31.4967 183.393 31.7062C183.114 31.8459 182.834 32.0554 182.625 32.2649C182.415 32.4046 182.206 32.6141 182.066 32.8934C181.857 33.1029 181.717 33.3124 181.647 33.4521L181.368 33.4521L180.46 30.4491C180.809 30.0999 181.298 29.7507 181.927 29.3317C182.555 28.9127 183.253 28.6334 183.952 28.4238C184.65 28.2143 185.279 28.0747 185.837 28.0747C186.396 28.0747 186.885 28.1445 187.374 28.354C187.863 28.5635 188.282 28.8429 188.631 29.2619C188.98 29.6809 189.259 30.1698 189.399 30.7285C189.609 31.5665 189.678 32.3347 189.399 33.0331C189.19 33.7315 188.771 34.2902 188.212 34.6394L188.212 34.779C188.212 34.779 188.84 34.779 189.12 34.779C189.399 34.779 189.748 34.9187 190.098 35.1282C190.377 35.3377 190.726 35.5473 191.005 35.8964C191.285 36.2456 191.494 36.6646 191.634 37.2233L191.564 37.0138Z" fill="white"/>
<path d="M214.401 38.9693L206.23 39.5978L206.021 37.0139L208.605 36.8044L207.976 28.9825L205.392 29.1921L205.182 26.7477C205.532 26.7477 205.951 26.6779 206.3 26.5382C206.649 26.4684 206.998 26.3287 207.208 26.1891C207.487 25.9795 207.627 25.77 207.766 25.4907C207.906 25.2113 207.976 24.8622 207.906 24.4431L210.63 24.2336L211.608 36.525L214.191 36.3155L214.401 38.8995L214.401 38.9693Z" fill="white"/>
<path d="M225.016 30.7285C225.086 31.9856 225.156 33.103 225.016 34.0807C224.946 35.0584 224.737 35.8965 224.388 36.525C224.039 37.2234 223.62 37.7123 223.061 38.1313C222.502 38.4805 221.734 38.7598 220.896 38.8297C220.058 38.8995 219.29 38.8297 218.661 38.4805C218.033 38.2011 217.474 37.7821 217.055 37.1536C216.636 36.525 216.287 35.7568 216.007 34.8489C215.728 33.941 215.588 32.8237 215.449 31.5666C215.309 30.2397 215.309 29.1223 215.449 28.2144C215.518 27.3065 215.728 26.4684 216.077 25.7701C216.426 25.0717 216.845 24.5828 217.474 24.1638C218.033 23.8146 218.801 23.6051 219.639 23.5353C220.547 23.4654 221.315 23.5353 221.943 23.8845C222.572 24.1638 223.061 24.6527 223.55 25.2812C223.969 25.9097 224.318 26.6779 224.527 27.5858C224.737 28.4937 224.946 29.6111 225.016 30.8682L225.016 30.7285ZM221.874 31.0079C221.734 29.1921 221.524 27.935 221.175 27.1668C220.896 26.4685 220.407 26.1193 219.778 26.1891C219.22 26.1891 218.801 26.6081 218.591 27.3763C218.382 28.1445 218.382 29.4016 218.521 31.2872C218.661 33.103 218.871 34.3601 219.22 35.0585C219.569 35.7568 219.988 36.106 220.617 36.106C221.175 36.106 221.594 35.687 221.804 34.8489C222.013 34.0807 222.013 32.7538 221.874 30.9381L221.874 31.0079Z" fill="white"/>
<path d="M253.44 34.0109C253.44 34.7791 253.231 35.4775 252.951 36.106C252.672 36.7346 252.323 37.2933 251.834 37.7123C251.345 38.1313 250.856 38.4805 250.228 38.69C249.599 38.8995 248.901 38.9694 247.993 38.8995C247.085 38.8995 246.317 38.69 245.618 38.4805C244.99 38.271 244.431 37.9916 244.012 37.7821L244.222 34.5696L244.501 34.5696C244.501 34.5696 244.85 34.849 244.99 34.9886C245.199 35.1283 245.409 35.268 245.758 35.4775C246.037 35.6172 246.317 35.7568 246.596 35.8965C246.875 36.0362 247.225 36.106 247.574 36.106C247.923 36.106 248.272 36.106 248.621 36.0362C248.971 35.9664 249.32 35.8267 249.529 35.5473C249.739 35.3378 249.878 35.1283 249.948 34.9188C250.088 34.7093 250.158 34.3601 250.158 33.9411C250.158 33.5919 250.158 33.3125 250.018 33.0332C249.948 32.7538 249.809 32.5443 249.599 32.4046C249.32 32.1951 248.971 31.9856 248.621 31.9158C248.202 31.846 247.853 31.7761 247.574 31.7761C247.085 31.7761 246.666 31.7761 246.247 31.7761C245.828 31.7761 245.409 31.9158 245.129 31.9856L244.85 31.9856L245.409 23.675L253.58 24.2337L253.37 27.0272L248.133 26.678L247.993 29.1223C247.993 29.1223 248.342 29.1223 248.621 29.1223C248.831 29.1223 249.04 29.1223 249.18 29.1223C249.739 29.1223 250.297 29.262 250.786 29.4715C251.275 29.681 251.694 29.8905 252.113 30.2397C252.532 30.6587 252.881 31.1476 253.091 31.7761C253.3 32.4046 253.37 33.1728 253.3 34.0807L253.44 34.0109Z" fill="white"/>
<path d="M280.258 44.4166L271.528 41.8326L272.226 39.528C273.204 39.0392 274.042 38.5503 274.81 38.1313C275.579 37.7122 276.277 37.2234 276.906 36.8044C277.674 36.2457 278.302 35.687 278.721 35.2679C279.14 34.7791 279.42 34.2204 279.629 33.6617C279.839 33.0331 279.839 32.4744 279.629 31.9856C279.42 31.5665 279.001 31.2174 278.372 31.0777C278.093 31.0078 277.744 30.938 277.464 30.938C277.185 30.938 276.836 30.938 276.556 31.0078C276.207 31.0078 275.998 31.1475 275.718 31.2872C275.509 31.357 275.299 31.4269 275.16 31.4967L274.95 31.4967L275.858 28.2842C276.277 28.2144 276.836 28.1445 277.604 28.1445C278.372 28.1445 279.07 28.2842 279.769 28.4239C281.166 28.8429 282.143 29.5413 282.632 30.519C283.121 31.4967 283.191 32.684 282.772 34.0109C282.493 34.8489 282.143 35.6171 281.585 36.3155C281.026 37.0139 280.188 37.7123 279.14 38.4106C278.512 38.8297 277.883 39.1788 277.325 39.528C276.766 39.8074 276.347 40.0867 276.067 40.1566L281.096 41.6231L280.328 44.3468L280.258 44.4166Z" fill="white"/>
<path d="M291.851 44.1373L290.245 43.6485L289.267 47.0007L286.403 46.1626L287.381 42.8104L282.143 41.274L282.912 38.6202L290.454 31.8459L293.457 32.7538L291.013 41.1343L292.619 41.6232L291.851 44.2072L291.851 44.1373ZM288.08 40.2264L289.476 35.4077L285.007 39.3884L288.01 40.2963L288.08 40.2264Z" fill="white"/>
<path d="M310.777 55.3811L303.234 52.0987L304.282 49.7243L306.656 50.7718L309.799 43.5786L307.424 42.531L308.402 40.2962C308.402 40.2962 309.101 40.5756 309.45 40.6454C309.799 40.7152 310.148 40.7851 310.427 40.7152C310.707 40.7152 310.986 40.5756 311.266 40.366C311.545 40.1565 311.754 39.8772 311.894 39.528L314.408 40.6454L309.45 51.8892L311.824 52.9368L310.777 55.3113L310.777 55.3811Z" fill="white"/>
<path d="M323.208 55.3812C322.579 56.7779 321.671 57.8254 320.484 58.3841C319.297 58.9428 318.11 58.9428 316.783 58.3841C316.154 58.1048 315.595 57.6858 315.176 57.2667C314.757 56.7779 314.478 56.289 314.268 55.6605C314.059 54.9621 314.059 54.1241 314.199 53.2162C314.338 52.3083 314.688 51.2607 315.176 50.0735C315.735 48.8863 316.294 47.8387 316.922 47.0007C317.551 46.1626 318.249 45.5341 319.017 44.9754C319.786 44.4865 320.624 44.2071 321.532 44.2071C322.439 44.2071 323.417 44.3468 324.465 44.8357C324.814 44.9754 325.163 45.1849 325.512 45.3944C325.862 45.6039 326.071 45.7436 326.211 45.8833L325.023 48.5371L324.814 48.5371C324.814 48.5371 324.535 48.118 324.255 47.9085C323.976 47.699 323.697 47.4895 323.278 47.28C322.37 46.861 321.601 46.861 320.833 47.28C320.135 47.6292 319.436 48.3276 318.878 49.3053C319.367 49.1656 319.855 49.0958 320.344 49.0958C320.833 49.0958 321.252 49.1656 321.741 49.445C322.16 49.6545 322.509 49.864 322.789 50.1433C323.068 50.4227 323.347 50.7719 323.487 51.1211C323.697 51.6798 323.836 52.2384 323.766 52.9368C323.766 53.6352 323.557 54.4034 323.138 55.3113L323.208 55.3812ZM319.017 56.0097C319.017 56.0097 319.506 55.6605 319.646 55.451C319.855 55.2415 320.065 54.8224 320.275 54.3336C320.484 53.9146 320.554 53.4955 320.624 53.2162C320.624 52.867 320.624 52.5877 320.554 52.3781C320.484 52.1686 320.344 51.9591 320.135 51.7496C319.925 51.6099 319.716 51.4702 319.506 51.3306C319.297 51.2607 319.087 51.1909 318.878 51.1211C318.668 51.1211 318.389 51.1211 318.179 51.1211C318.179 51.1211 318.11 51.2607 318.04 51.4004C318.04 51.5401 317.9 51.6798 317.83 51.9591C317.481 52.7273 317.271 53.3558 317.202 53.9145C317.132 54.4732 317.062 54.8923 317.202 55.1716C317.202 55.451 317.341 55.6605 317.481 55.8002C317.621 55.9398 317.76 56.0795 317.97 56.1493C318.11 56.1493 318.319 56.2192 318.529 56.2192C318.738 56.2192 318.948 56.1494 319.157 56.0097L319.017 56.0097Z" fill="white"/>
<path d="M342.343 67.6027C341.924 68.1614 341.435 68.6502 340.877 68.9994C340.318 69.3486 339.759 69.5581 339.201 69.628C338.572 69.6978 338.013 69.628 337.385 69.4883C336.756 69.3486 336.128 68.9994 335.429 68.5106C334.661 67.9519 334.033 67.3932 333.614 66.8345C333.194 66.2758 332.845 65.7869 332.636 65.2981L334.521 62.7141L334.731 62.9236C334.871 63.4823 335.15 64.041 335.499 64.5997C335.848 65.1584 336.197 65.5774 336.617 65.8568C336.826 65.9964 337.175 66.206 337.455 66.3456C337.804 66.4853 338.083 66.5551 338.432 66.5551C338.712 66.5551 338.921 66.4853 339.131 66.3456C339.34 66.206 339.62 65.9964 339.899 65.5774C340.178 65.2282 340.318 64.879 340.318 64.5997C340.318 64.3203 340.318 64.041 340.108 63.8315C339.969 63.5521 339.759 63.3426 339.41 63.1331C339.131 62.9236 338.851 62.7141 338.642 62.5744L338.223 62.295L339.759 60.1999L340.178 60.4793C340.178 60.4793 340.807 60.8983 341.086 61.038C341.365 61.1776 341.645 61.3173 341.854 61.3173C342.134 61.3173 342.343 61.3173 342.553 61.1776C342.762 61.038 343.042 60.8285 343.251 60.5491C343.461 60.3396 343.53 60.0603 343.53 59.8507C343.53 59.6412 343.53 59.4317 343.461 59.2222C343.391 59.0127 343.251 58.8032 343.042 58.5937C342.832 58.3842 342.692 58.2445 342.553 58.1746C342.273 57.9651 341.994 57.8255 341.715 57.7556C341.435 57.6159 341.086 57.5461 340.737 57.4763C340.458 57.4763 340.178 57.4064 339.899 57.4064C339.62 57.4064 339.34 57.4064 339.201 57.4064L338.991 57.2667L340.877 54.6828C341.365 54.7526 341.924 54.8923 342.623 55.1716C343.321 55.451 344.019 55.8002 344.578 56.2192C345.207 56.6382 345.626 57.0572 345.975 57.5461C346.324 57.9651 346.603 58.454 346.743 58.873C346.883 59.3619 346.952 59.8507 346.813 60.4094C346.673 60.8983 346.464 61.457 346.114 61.9459C345.626 62.6442 344.997 63.1331 344.299 63.4124C343.6 63.6918 342.902 63.6918 342.273 63.4124L342.273 63.5521C342.273 63.5521 342.553 64.041 342.762 64.2505C342.902 64.5298 343.042 64.8092 343.042 65.2282C343.042 65.5774 343.042 65.9964 342.972 66.4155C342.832 66.8345 342.623 67.2535 342.343 67.7424L342.343 67.6027Z" fill="white"/>
<path d="M351.213 73.9579C350.794 74.5166 350.305 75.0054 349.746 75.3546C349.187 75.7038 348.629 75.9133 348.07 75.9832C347.441 76.053 346.883 75.9832 346.254 75.8435C345.626 75.7038 344.997 75.3546 344.299 74.8658C343.53 74.3071 342.902 73.7484 342.413 73.1897C341.994 72.631 341.645 72.1421 341.435 71.6532L343.321 69.0693L343.53 69.2788C343.67 69.8375 343.949 70.3962 344.299 70.9549C344.648 71.5136 344.997 71.9326 345.416 72.212C345.695 72.4215 345.975 72.5611 346.254 72.7008C346.603 72.8405 346.883 72.9103 347.232 72.9103C347.511 72.9103 347.721 72.8405 347.93 72.7008C348.14 72.5611 348.419 72.3516 348.698 71.9326C348.978 71.5834 349.117 71.2342 349.117 70.9549C349.117 70.6755 349.117 70.3962 348.908 70.1867C348.768 69.9073 348.559 69.6978 348.21 69.4883C347.93 69.2788 347.651 69.0693 347.441 68.9296L347.022 68.6502L348.559 66.5551L348.978 66.8345C348.978 66.8345 349.606 67.2535 349.886 67.3932C350.165 67.5328 350.444 67.6725 350.654 67.6725C350.933 67.6725 351.143 67.6725 351.352 67.5328C351.562 67.3932 351.841 67.1836 352.051 66.9043C352.26 66.6948 352.33 66.4154 352.33 66.2059C352.33 65.9964 352.33 65.7869 352.26 65.5774C352.19 65.3679 352.051 65.1584 351.841 64.9489C351.632 64.7393 351.492 64.5997 351.352 64.5298C351.073 64.3203 350.794 64.1807 350.514 64.1108C350.235 63.9711 349.886 63.9013 349.606 63.8315C349.327 63.8315 349.048 63.7616 348.768 63.7616C348.489 63.7616 348.21 63.7616 348.07 63.7616L347.86 63.6219L349.746 61.038C350.235 61.1078 350.794 61.2475 351.492 61.5268C352.19 61.8062 352.889 62.1554 353.447 62.5744C354.076 62.9934 354.495 63.4124 354.844 63.9013C355.193 64.3203 355.403 64.8092 355.612 65.2282C355.752 65.7171 355.822 66.2059 355.682 66.7646C355.542 67.2535 355.333 67.8122 354.984 68.3011C354.495 68.9994 353.866 69.4883 353.168 69.7676C352.47 70.047 351.771 70.047 351.143 69.7676L351.143 69.9073C351.143 69.9073 351.422 70.3962 351.632 70.6057C351.771 70.885 351.911 71.1644 351.911 71.5834C351.911 71.9326 351.911 72.3516 351.841 72.7706C351.701 73.1897 351.492 73.6087 351.213 74.0975L351.213 73.9579Z" fill="white"/>
<path d="M370.069 96.2361L364.342 90.3697L366.158 88.5539L367.974 90.4395L373.561 84.9224L371.745 83.0368L373.491 81.3607C373.491 81.3607 374.049 81.9194 374.329 82.1289C374.608 82.3384 374.887 82.4781 375.167 82.5479C375.446 82.6178 375.795 82.6178 376.075 82.5479C376.354 82.4781 376.633 82.2686 376.983 81.9892L378.868 83.9447L370.069 92.6045L371.884 94.4203L370.069 96.2361Z" fill="white"/>
<path d="M388.366 117.327L383.128 109.854L385.084 108.458C386.131 108.667 387.109 108.877 387.947 108.946C388.855 109.086 389.623 109.156 390.391 109.226C391.369 109.226 392.137 109.226 392.766 109.226C393.394 109.086 393.953 108.877 394.442 108.527C395.001 108.108 395.35 107.689 395.42 107.201C395.49 106.712 395.42 106.223 395.071 105.664C394.861 105.385 394.651 105.175 394.442 105.036C394.232 104.826 393.953 104.686 393.674 104.547C393.394 104.407 393.115 104.267 392.906 104.198C392.696 104.198 392.487 104.058 392.347 104.058L392.207 103.848L394.861 101.963C395.21 102.102 395.699 102.452 396.328 102.94C396.956 103.429 397.445 103.988 397.794 104.547C398.632 105.734 398.981 106.921 398.772 107.969C398.562 109.016 397.864 109.994 396.677 110.762C395.978 111.251 395.14 111.6 394.232 111.81C393.325 112.019 392.277 112.019 391.02 111.949C390.252 111.88 389.553 111.81 388.855 111.67C388.226 111.53 387.738 111.461 387.458 111.391L390.461 115.721L388.157 117.327L388.366 117.327Z" fill="white"/>
<path d="M400.588 121.866C399.54 122.565 398.562 123.193 397.654 123.612C396.747 124.031 395.978 124.241 395.21 124.311C394.442 124.311 393.813 124.311 393.185 123.962C392.556 123.682 391.998 123.123 391.509 122.425C391.02 121.727 390.741 121.028 390.671 120.33C390.601 119.632 390.671 118.933 391.02 118.235C391.369 117.536 391.858 116.838 392.556 116.21C393.255 115.511 394.093 114.813 395.14 114.114C396.188 113.346 397.166 112.788 398.073 112.369C398.912 111.949 399.75 111.74 400.518 111.67C401.286 111.67 401.984 111.74 402.613 112.089C403.241 112.438 403.8 112.927 404.289 113.626C404.778 114.324 405.057 115.092 405.127 115.721C405.127 116.419 405.127 117.117 404.708 117.816C404.359 118.514 403.87 119.213 403.172 119.841C402.473 120.539 401.635 121.238 400.588 121.936L400.588 121.866ZM398.772 119.282C400.308 118.235 401.286 117.397 401.705 116.768C402.194 116.14 402.194 115.581 401.915 115.092C401.565 114.603 401.007 114.464 400.308 114.673C399.54 114.883 398.423 115.511 396.886 116.559C395.42 117.606 394.442 118.444 393.953 119.073C393.464 119.701 393.394 120.26 393.744 120.749C394.093 121.238 394.651 121.378 395.42 121.168C396.188 120.958 397.305 120.33 398.842 119.282L398.772 119.282Z" fill="white"/>
<path d="M404.289 144.494L400.588 137.161L402.892 135.974L404.079 138.348L411.063 134.786L409.876 132.482L412.041 131.364C412.041 131.364 412.39 132.063 412.6 132.342C412.809 132.621 413.019 132.901 413.298 133.04C413.577 133.18 413.857 133.32 414.136 133.32C414.415 133.32 414.765 133.32 415.114 133.11L416.301 135.555L405.337 141.072L406.454 143.376L404.149 144.564L404.289 144.494Z" fill="white"/>
<path d="M412.6 153.293L411.831 151.827L408.689 153.433L407.362 150.779L410.505 149.173L408.06 144.284L410.505 143.027L420.631 143.935L422.028 146.729L414.276 150.639L415.044 152.106L412.669 153.293L412.6 153.293ZM412.879 147.916L417.418 145.611L411.482 145.052L412.879 147.846L412.879 147.916Z" fill="white"/>
<path d="M421.12 175.083C420.421 175.292 419.723 175.362 419.094 175.292C418.466 175.292 417.907 175.083 417.348 174.733C416.86 174.454 416.371 174.035 416.022 173.476C415.672 172.987 415.323 172.289 415.114 171.451C414.834 170.543 414.695 169.705 414.765 169.007C414.765 168.308 414.765 167.68 414.974 167.191L418.047 166.353L418.047 166.632C417.907 167.191 417.768 167.75 417.698 168.448C417.628 169.076 417.698 169.705 417.768 170.194C417.837 170.473 417.977 170.822 418.117 171.102C418.256 171.451 418.466 171.66 418.745 171.87C418.955 172.01 419.164 172.079 419.444 172.149C419.723 172.149 420.072 172.149 420.491 172.01C420.91 171.87 421.19 171.73 421.399 171.521C421.609 171.311 421.678 171.032 421.748 170.753C421.748 170.473 421.748 170.124 421.678 169.775C421.609 169.426 421.539 169.076 421.469 168.797L421.329 168.308L423.843 167.61L423.983 168.099C424.053 168.448 424.193 168.797 424.332 169.076C424.472 169.356 424.612 169.635 424.751 169.775C424.961 169.984 425.17 170.054 425.38 170.124C425.659 170.124 425.938 170.124 426.288 170.124C426.567 170.054 426.777 169.915 426.916 169.775C427.056 169.635 427.196 169.426 427.196 169.216C427.196 169.007 427.265 168.727 427.196 168.448C427.196 168.169 427.126 167.959 427.056 167.75C426.986 167.47 426.846 167.191 426.707 166.912C426.567 166.632 426.358 166.353 426.148 166.073C426.008 165.864 425.799 165.654 425.589 165.445C425.38 165.235 425.17 165.096 425.1 165.026L425.1 164.747L428.103 163.909C428.453 164.258 428.802 164.747 429.151 165.375C429.57 166.004 429.849 166.702 430.059 167.47C430.268 168.169 430.338 168.797 430.338 169.356C430.338 169.915 430.268 170.403 430.059 170.892C429.849 171.381 429.57 171.8 429.151 172.149C428.732 172.499 428.243 172.708 427.684 172.918C426.846 173.127 426.078 173.127 425.38 172.918C424.681 172.708 424.123 172.289 423.774 171.66L423.634 171.66C423.634 171.66 423.634 172.289 423.634 172.568C423.634 172.848 423.494 173.197 423.285 173.546C423.075 173.825 422.866 174.175 422.516 174.384C422.167 174.663 421.748 174.873 421.19 175.013L421.12 175.083Z" fill="white"/>
<path d="M419.653 186.536L417.488 178.644L420.002 177.946L420.701 180.46L428.243 178.365L427.545 175.851L429.849 175.222C429.919 175.571 430.059 175.921 430.268 176.27C430.408 176.619 430.618 176.898 430.757 177.038C430.967 177.247 431.246 177.387 431.526 177.457C431.805 177.457 432.154 177.457 432.573 177.457L433.271 180.111L421.399 183.393L422.097 185.837L419.583 186.536L419.653 186.536Z" fill="white"/>
<path d="M432.084 211.258C430.827 211.398 429.64 211.398 428.592 211.258C427.545 211.119 426.567 210.839 425.799 210.42C424.961 210.001 424.332 209.373 423.843 208.604C423.355 207.836 423.075 206.928 422.936 205.741C422.936 205.322 422.936 204.973 422.936 204.554C422.936 204.135 422.936 203.856 423.005 203.716L425.939 203.436L425.939 203.646C425.939 203.646 425.799 204.065 425.729 204.344C425.659 204.624 425.659 205.043 425.729 205.532C425.729 205.951 425.869 206.3 426.008 206.649C426.148 206.998 426.427 207.347 426.707 207.557C427.056 207.836 427.405 207.976 427.894 208.185C428.313 208.325 428.942 208.395 429.57 208.395C429.221 207.976 428.872 207.627 428.662 207.208C428.453 206.859 428.313 206.37 428.243 205.811C428.243 205.392 428.243 204.973 428.313 204.554C428.383 204.135 428.592 203.786 428.802 203.436C429.151 202.948 429.64 202.598 430.199 202.249C430.827 201.97 431.595 201.76 432.573 201.621C433.341 201.551 434.04 201.621 434.738 201.76C435.437 201.9 435.995 202.179 436.554 202.529C437.043 202.878 437.462 203.297 437.811 203.856C438.16 204.414 438.37 205.043 438.44 205.741C438.509 206.44 438.44 207.138 438.3 207.697C438.09 208.255 437.811 208.814 437.322 209.233C436.833 209.722 436.135 210.211 435.227 210.49C434.389 210.839 433.272 211.049 432.014 211.188L432.084 211.258ZM432.364 208.116C433.132 208.046 433.83 207.906 434.319 207.766C434.808 207.627 435.227 207.417 435.506 207.138C435.716 206.998 435.856 206.789 435.925 206.579C435.995 206.37 435.995 206.16 435.995 205.951C435.995 205.741 435.925 205.601 435.786 205.462C435.646 205.322 435.506 205.113 435.297 204.973C435.087 204.833 434.808 204.763 434.389 204.694C434.04 204.694 433.621 204.624 433.132 204.694C432.643 204.694 432.294 204.833 431.945 204.973C431.665 205.113 431.386 205.252 431.246 205.462C431.107 205.671 430.967 205.881 430.897 206.09C430.897 206.3 430.897 206.579 430.897 206.859C430.897 207.068 430.967 207.347 431.107 207.557C431.176 207.766 431.316 207.976 431.386 208.116C431.456 208.116 431.595 208.116 431.665 208.116C431.805 208.116 432.014 208.116 432.294 208.116L432.364 208.116Z" fill="white"/>
<path d="M424.123 239.682L424.612 230.603L427.056 230.743C427.754 231.581 428.383 232.279 429.011 232.908C429.64 233.536 430.199 234.095 430.757 234.654C431.526 235.282 432.154 235.771 432.713 236.051C433.272 236.33 433.83 236.539 434.459 236.539C435.157 236.539 435.716 236.4 436.065 236.12C436.484 235.771 436.694 235.352 436.694 234.724C436.694 234.374 436.694 234.095 436.624 233.816C436.554 233.536 436.414 233.257 436.344 232.978C436.205 232.698 436.065 232.419 435.925 232.21C435.786 232 435.646 231.86 435.576 231.721L435.576 231.511L438.789 231.651C438.998 232 439.138 232.559 439.347 233.327C439.487 234.095 439.557 234.794 439.557 235.492C439.487 236.958 438.998 238.076 438.23 238.774C437.392 239.473 436.275 239.822 434.878 239.752C433.97 239.752 433.132 239.473 432.364 239.123C431.526 238.704 430.688 238.146 429.78 237.238C429.221 236.679 428.732 236.19 428.243 235.701C427.824 235.213 427.475 234.863 427.335 234.654L427.056 239.892L424.262 239.752L424.123 239.682Z" fill="white"/>
<path d="M423.564 250.507L424.053 241.428L426.497 241.568C427.196 242.406 427.824 243.104 428.453 243.733C429.081 244.361 429.64 244.92 430.199 245.479C430.967 246.107 431.595 246.596 432.154 246.875C432.713 247.155 433.271 247.364 433.9 247.364C434.598 247.364 435.157 247.225 435.506 246.945C435.925 246.596 436.135 246.177 436.135 245.548C436.135 245.199 436.135 244.92 436.065 244.641C435.995 244.361 435.855 244.082 435.786 243.803C435.646 243.523 435.506 243.244 435.367 243.034C435.227 242.825 435.087 242.685 435.017 242.545L435.017 242.336L438.23 242.476C438.439 242.825 438.579 243.384 438.789 244.152C438.928 244.92 438.998 245.618 438.998 246.317C438.928 247.783 438.439 248.901 437.671 249.599C436.833 250.297 435.716 250.647 434.319 250.577C433.411 250.577 432.573 250.297 431.805 249.948C430.967 249.529 430.129 248.971 429.221 248.063C428.662 247.504 428.173 247.015 427.685 246.526C427.265 246.037 426.916 245.688 426.777 245.479L426.497 250.716L423.704 250.577L423.564 250.507Z" fill="white"/>
<path d="M420.561 270.061L422.517 262.1L425.031 262.729L424.402 265.243L432.014 267.128L432.643 264.614L435.017 265.173C434.948 265.522 434.878 265.941 434.808 266.29C434.808 266.639 434.808 266.989 434.808 267.268C434.878 267.547 435.087 267.827 435.297 268.036C435.506 268.246 435.856 268.385 436.205 268.525L435.576 271.179L423.634 268.246L423.005 270.76L420.491 270.131L420.561 270.061Z" fill="white"/>
<path d="M421.888 282.073C421.26 281.934 420.701 281.654 420.212 281.305C419.723 280.956 419.374 280.537 419.025 280.048C418.745 279.559 418.536 279.001 418.466 278.302C418.396 277.674 418.466 276.975 418.606 276.207C418.815 275.369 419.095 274.741 419.444 274.182C419.793 273.623 420.212 273.204 420.701 272.925C421.19 272.645 421.679 272.436 422.237 272.436C422.796 272.436 423.355 272.436 423.913 272.576C424.751 272.785 425.38 273.134 425.869 273.623C426.358 274.112 426.637 274.81 426.847 275.648C427.405 275.09 428.034 274.671 428.732 274.531C429.361 274.391 430.059 274.391 430.827 274.531C431.386 274.671 431.805 274.88 432.224 275.16C432.643 275.439 432.992 275.858 433.272 276.347C433.551 276.766 433.691 277.325 433.76 277.953C433.83 278.582 433.76 279.21 433.621 279.909C433.411 280.677 433.202 281.305 432.853 281.794C432.503 282.283 432.154 282.702 431.735 282.981C431.316 283.261 430.897 283.47 430.408 283.54C429.919 283.61 429.431 283.54 428.872 283.54C428.173 283.4 427.615 283.051 427.126 282.562C426.637 282.073 426.288 281.445 426.078 280.677C425.52 281.375 424.821 281.864 424.123 282.073C423.425 282.283 422.586 282.283 421.748 282.073L421.888 282.073ZM429.361 280.467C429.85 280.607 430.269 280.537 430.618 280.328C430.967 280.118 431.176 279.769 431.316 279.35C431.456 278.931 431.316 278.512 431.176 278.163C430.967 277.813 430.688 277.604 430.269 277.534C429.85 277.464 429.57 277.464 429.291 277.534C429.011 277.674 428.732 277.813 428.453 278.163C428.313 278.302 428.173 278.442 428.034 278.651C427.894 278.861 427.685 279.07 427.475 279.42C427.754 279.699 428.034 279.909 428.313 280.118C428.592 280.258 428.942 280.397 429.361 280.537L429.361 280.467ZM422.447 279.07C422.936 279.21 423.285 279.21 423.564 279.07C423.844 278.931 424.263 278.651 424.682 278.232C424.821 278.093 424.961 277.883 425.17 277.604C425.38 277.325 425.589 277.115 425.729 276.906C425.52 276.626 425.24 276.347 424.961 276.137C424.612 275.858 424.263 275.718 423.774 275.579C423.075 275.439 422.517 275.439 422.028 275.718C421.539 275.998 421.26 276.417 421.05 276.975C421.05 277.115 421.05 277.325 421.05 277.534C421.05 277.744 421.05 277.953 421.19 278.163C421.329 278.372 421.469 278.582 421.609 278.721C421.818 278.861 422.028 279.001 422.377 279.07L422.447 279.07Z" fill="white"/>
<path d="M410.993 303.863L414.415 295.412L416.65 296.32C417.069 297.298 417.418 298.206 417.768 299.044C418.117 299.882 418.536 300.58 418.885 301.209C419.374 302.047 419.863 302.745 420.282 303.164C420.701 303.653 421.19 304.002 421.818 304.212C422.447 304.491 423.005 304.491 423.494 304.352C423.983 304.142 424.332 303.793 424.542 303.234C424.681 302.955 424.751 302.676 424.751 302.326C424.751 302.047 424.751 301.698 424.751 301.418C424.751 301.069 424.681 300.79 424.612 300.58C424.542 300.301 424.472 300.161 424.472 300.022L424.472 299.812L427.545 300.999C427.545 301.418 427.545 301.977 427.545 302.745C427.475 303.514 427.265 304.212 427.056 304.84C426.497 306.237 425.729 307.075 424.681 307.494C423.704 307.913 422.517 307.843 421.19 307.285C420.352 306.936 419.653 306.447 419.025 305.818C418.396 305.19 417.768 304.282 417.139 303.234C416.79 302.536 416.441 301.907 416.231 301.279C415.952 300.65 415.812 300.231 415.672 299.952L413.717 304.84L411.133 303.793L410.993 303.863Z" fill="white"/>
<path d="M414.695 316.713C413.507 316.224 412.46 315.665 411.622 315.107C410.714 314.478 410.016 313.78 409.527 313.011C409.038 312.243 408.758 311.405 408.619 310.497C408.549 309.589 408.689 308.612 409.108 307.564C409.247 307.215 409.457 306.866 409.666 306.447C409.876 306.098 410.016 305.818 410.155 305.748L412.879 306.866L412.879 307.075C412.879 307.075 412.46 307.355 412.25 307.564C412.041 307.774 411.831 308.123 411.692 308.612C411.552 308.961 411.482 309.38 411.412 309.799C411.412 310.218 411.412 310.567 411.622 310.916C411.761 311.266 412.041 311.615 412.39 311.964C412.739 312.313 413.158 312.662 413.787 312.942C413.647 312.383 413.577 311.964 413.577 311.475C413.577 311.056 413.647 310.567 413.857 310.078C413.996 309.659 414.206 309.31 414.485 309.031C414.764 308.751 415.114 308.472 415.463 308.263C416.022 307.983 416.58 307.913 417.279 307.913C417.977 307.913 418.745 308.123 419.653 308.472C420.351 308.751 420.98 309.101 421.539 309.589C422.097 310.008 422.447 310.567 422.796 311.126C423.075 311.685 423.215 312.243 423.285 312.942C423.285 313.57 423.215 314.269 422.935 314.897C422.656 315.595 422.307 316.084 421.888 316.573C421.469 316.992 420.91 317.341 420.282 317.481C419.583 317.691 418.745 317.76 417.837 317.621C416.929 317.481 415.882 317.202 414.695 316.783L414.695 316.713ZM416.371 314.059C417.139 314.338 417.768 314.548 418.256 314.618C418.815 314.688 419.234 314.688 419.583 314.618C419.863 314.618 420.072 314.478 420.212 314.338C420.351 314.199 420.491 314.059 420.561 313.849C420.561 313.71 420.631 313.5 420.631 313.291C420.631 313.081 420.561 312.872 420.351 312.662C420.212 312.453 420.002 312.243 419.723 312.034C419.444 311.824 419.025 311.615 418.675 311.405C418.256 311.196 417.837 311.126 417.558 311.126C417.209 311.126 416.929 311.126 416.72 311.266C416.51 311.335 416.301 311.475 416.161 311.685C416.022 311.894 415.882 312.104 415.742 312.313C415.672 312.523 415.603 312.802 415.603 313.011C415.603 313.291 415.603 313.5 415.603 313.64C415.603 313.64 415.742 313.71 415.882 313.78C416.022 313.78 416.161 313.919 416.441 313.989L416.371 314.059Z" fill="white"/>
<path d="M403.381 343.67L396.258 332.775L398.143 329.842L405.197 341.086L408.409 336.128L410.784 337.664L405.825 345.346L403.381 343.74L403.381 343.67Z" fill="white"/>
<path d="M378.1 358.685L384.315 351.981L386.061 353.657C386.061 354.704 386.061 355.682 386.201 356.59C386.201 357.498 386.341 358.266 386.48 359.034C386.62 360.012 386.83 360.78 387.039 361.339C387.249 361.968 387.598 362.456 388.087 362.875C388.576 363.364 389.134 363.574 389.623 363.574C390.112 363.574 390.601 363.364 391.02 362.875C391.229 362.666 391.369 362.387 391.509 362.107C391.648 361.828 391.718 361.548 391.858 361.269C391.928 360.99 391.998 360.641 391.998 360.431C391.998 360.152 391.998 360.012 391.998 359.872L392.137 359.663L394.512 361.898C394.442 362.317 394.232 362.806 393.883 363.504C393.534 364.202 393.115 364.761 392.626 365.32C391.648 366.367 390.601 366.926 389.483 366.996C388.366 366.996 387.318 366.577 386.271 365.599C385.642 364.971 385.084 364.272 384.734 363.434C384.385 362.596 384.106 361.548 383.896 360.361C383.827 359.593 383.757 358.895 383.757 358.196C383.757 357.568 383.757 357.079 383.757 356.8L380.195 360.641L378.17 358.755L378.1 358.685Z" fill="white"/>
<path d="M373.77 369.51C373.281 369.091 372.932 368.602 372.722 368.043C372.443 367.485 372.303 366.926 372.303 366.367C372.303 365.809 372.443 365.18 372.653 364.621C372.932 363.993 373.281 363.434 373.84 362.875C374.399 362.247 374.957 361.828 375.586 361.479C376.214 361.199 376.773 360.99 377.332 360.99C377.89 360.99 378.449 361.06 378.938 361.269C379.427 361.479 379.916 361.828 380.335 362.177C380.963 362.736 381.312 363.364 381.522 364.063C381.662 364.761 381.662 365.459 381.382 366.297C382.22 366.088 382.919 366.088 383.547 366.297C384.176 366.507 384.804 366.856 385.363 367.345C385.782 367.694 386.061 368.113 386.271 368.602C386.48 369.091 386.62 369.58 386.62 370.139C386.62 370.627 386.48 371.186 386.271 371.815C386.061 372.373 385.642 372.932 385.154 373.491C384.665 374.049 384.106 374.468 383.547 374.748C382.989 375.027 382.5 375.237 382.011 375.237C381.522 375.237 381.033 375.237 380.544 375.097C380.055 374.957 379.636 374.678 379.217 374.329C378.728 373.84 378.379 373.281 378.17 372.653C377.96 372.024 377.96 371.326 378.17 370.558C377.332 370.837 376.494 370.907 375.795 370.767C375.027 370.627 374.329 370.208 373.7 369.65L373.77 369.51ZM381.103 371.745C381.452 372.094 381.871 372.234 382.29 372.234C382.709 372.234 383.058 372.094 383.408 371.675C383.687 371.326 383.896 370.977 383.827 370.558C383.827 370.138 383.687 369.859 383.338 369.58C382.989 369.3 382.779 369.161 382.43 369.091C382.151 369.091 381.801 369.091 381.382 369.231C381.243 369.231 381.033 369.37 380.824 369.44C380.614 369.51 380.335 369.65 379.986 369.789C380.055 370.208 380.195 370.488 380.405 370.837C380.544 371.116 380.824 371.396 381.103 371.675L381.103 371.745ZM375.795 367.135C376.145 367.485 376.494 367.624 376.773 367.694C377.052 367.694 377.541 367.694 378.17 367.485C378.379 367.485 378.589 367.345 378.868 367.205C379.148 367.066 379.427 366.996 379.706 366.856C379.706 366.507 379.567 366.158 379.357 365.809C379.217 365.459 378.938 365.11 378.589 364.761C378.1 364.272 377.541 364.063 376.983 364.063C376.424 364.063 375.935 364.272 375.516 364.691C375.376 364.831 375.306 364.971 375.237 365.18C375.167 365.39 375.097 365.599 375.097 365.809C375.097 366.018 375.097 366.297 375.167 366.507C375.237 366.716 375.446 366.926 375.656 367.205L375.795 367.135Z" fill="white"/>
<path d="M354.146 380.335L360.501 375.097L362.177 377.122L360.152 378.798L365.11 384.874L367.135 383.198L368.672 385.084C368.672 385.084 368.113 385.573 367.834 385.852C367.554 386.131 367.415 386.411 367.345 386.62C367.205 386.899 367.205 387.179 367.275 387.528C367.275 387.807 367.485 388.157 367.694 388.436L365.599 390.182L357.777 380.684L355.822 382.29L354.146 380.265L354.146 380.335Z" fill="white"/>
<path d="M345.276 387.598L352.33 381.801L353.866 383.687C353.727 384.735 353.657 385.712 353.587 386.62C353.587 387.528 353.517 388.366 353.517 389.064C353.517 390.042 353.657 390.81 353.796 391.439C353.936 392.067 354.215 392.626 354.635 393.045C355.054 393.604 355.542 393.883 356.031 393.953C356.52 393.953 357.009 393.883 357.498 393.464C357.777 393.255 357.917 393.045 358.126 392.766C358.266 392.486 358.406 392.277 358.545 391.928C358.685 391.648 358.755 391.369 358.825 391.09C358.825 390.81 358.895 390.671 358.964 390.531L359.174 390.391L361.199 392.906C361.06 393.255 360.78 393.813 360.291 394.442C359.872 395.07 359.383 395.629 358.825 396.048C357.707 396.956 356.59 397.375 355.473 397.235C354.355 397.096 353.377 396.467 352.47 395.42C351.911 394.721 351.492 393.953 351.212 393.115C350.933 392.277 350.793 391.16 350.793 389.902C350.793 389.134 350.793 388.436 350.933 387.738C351.003 387.109 351.073 386.62 351.073 386.341L347.022 389.693L345.276 387.528L345.276 387.598Z" fill="white"/>
<path d="M329.703 403.102C329.353 402.473 329.144 401.845 329.074 401.216C329.004 400.588 329.074 399.959 329.214 399.4C329.423 398.842 329.703 398.283 330.122 397.794C330.541 397.305 331.099 396.886 331.868 396.467C332.706 396.048 333.474 395.699 334.172 395.559C334.871 395.42 335.499 395.35 335.988 395.35L337.524 398.213L337.245 398.353C336.686 398.283 336.058 398.213 335.429 398.353C334.801 398.353 334.242 398.562 333.753 398.772C333.474 398.912 333.194 399.121 332.915 399.331C332.636 399.54 332.426 399.819 332.356 400.099C332.287 400.308 332.217 400.588 332.217 400.867C332.217 401.146 332.356 401.495 332.566 401.845C332.775 402.264 332.985 402.473 333.264 402.613C333.544 402.753 333.753 402.822 334.102 402.753C334.382 402.753 334.731 402.613 335.01 402.473C335.359 402.334 335.639 402.194 335.918 402.054L336.407 401.775L337.594 404.079L337.175 404.289C337.175 404.289 336.547 404.638 336.267 404.848C335.988 405.057 335.778 405.197 335.639 405.406C335.499 405.616 335.429 405.825 335.429 406.105C335.429 406.384 335.499 406.663 335.709 407.013C335.848 407.292 335.988 407.502 336.197 407.571C336.407 407.711 336.617 407.781 336.756 407.781C336.966 407.781 337.245 407.781 337.455 407.641C337.734 407.571 337.943 407.432 338.083 407.362C338.362 407.222 338.572 407.013 338.851 406.803C339.061 406.594 339.34 406.314 339.55 406.105C339.689 405.895 339.829 405.686 340.039 405.406C340.178 405.127 340.318 404.918 340.388 404.778L340.597 404.638L342.064 407.432C341.784 407.851 341.365 408.27 340.807 408.828C340.248 409.317 339.689 409.806 338.991 410.155C338.362 410.505 337.734 410.714 337.175 410.854C336.617 410.993 336.128 410.993 335.639 410.854C335.15 410.784 334.661 410.574 334.242 410.225C333.823 409.876 333.474 409.457 333.194 408.898C332.775 408.13 332.636 407.432 332.706 406.663C332.706 405.895 333.055 405.267 333.544 404.848L333.544 404.708C333.194 404.778 332.915 404.848 332.566 404.848C332.287 404.848 331.937 404.848 331.588 404.708C331.239 404.568 330.89 404.429 330.541 404.079C330.191 403.8 329.912 403.381 329.633 402.892L329.703 403.102Z" fill="white"/>
<path d="M320.344 408.689C319.995 407.99 319.716 407.292 319.646 406.663C319.506 405.965 319.576 405.337 319.716 404.708C319.856 404.079 320.135 403.521 320.554 403.032C320.973 402.543 321.532 402.054 322.3 401.635C323.138 401.216 323.836 400.937 324.535 400.797C325.233 400.657 325.792 400.588 326.281 400.588L327.817 403.451L327.538 403.591C327.538 403.591 327.119 403.591 326.909 403.521C326.7 403.521 326.42 403.521 326.071 403.521C325.722 403.521 325.443 403.521 325.093 403.66C324.814 403.66 324.465 403.87 324.116 404.01C323.836 404.149 323.557 404.359 323.278 404.638C322.998 404.918 322.789 405.197 322.719 405.546C322.719 405.825 322.719 406.035 322.719 406.314C322.719 406.594 322.859 406.873 323.068 407.222C323.208 407.502 323.417 407.781 323.627 407.921C323.836 408.06 324.116 408.2 324.325 408.2C324.674 408.2 325.023 408.2 325.443 408.13C325.792 407.99 326.141 407.851 326.42 407.711C326.839 407.502 327.188 407.222 327.538 406.943C327.887 406.663 328.166 406.384 328.376 406.175L328.585 406.035L332.496 413.438L325.233 417.279L323.906 414.834L328.585 412.39L327.398 410.225C327.398 410.225 327.119 410.435 326.909 410.505C326.7 410.644 326.56 410.714 326.42 410.784C325.862 411.063 325.373 411.273 324.884 411.343C324.395 411.482 323.836 411.482 323.417 411.343C322.859 411.273 322.3 410.993 321.741 410.574C321.252 410.155 320.763 409.527 320.344 408.759L320.344 408.689Z" fill="white"/>
<path d="M294.016 419.583C293.806 418.885 293.666 418.256 293.736 417.558C293.736 416.93 293.946 416.301 294.225 415.812C294.505 415.253 294.924 414.834 295.412 414.415C295.901 413.996 296.53 413.717 297.368 413.438C298.276 413.158 299.114 412.949 299.812 412.949C300.511 412.949 301.139 412.949 301.628 413.019L302.606 416.092L302.326 416.092C301.768 416.022 301.209 415.882 300.511 415.812C299.812 415.742 299.253 415.812 298.765 415.952C298.485 416.022 298.206 416.161 297.857 416.371C297.577 416.511 297.298 416.79 297.158 417.069C297.019 417.279 296.949 417.558 296.949 417.768C296.949 418.047 296.949 418.396 297.088 418.815C297.228 419.234 297.438 419.514 297.647 419.723C297.857 419.933 298.136 420.002 298.415 420.002C298.695 420.002 299.044 420.002 299.393 419.863C299.742 419.793 300.091 419.653 300.301 419.583L300.79 419.444L301.628 421.958L301.139 422.098C300.79 422.237 300.441 422.307 300.161 422.447C299.882 422.586 299.672 422.726 299.463 422.936C299.323 423.145 299.184 423.355 299.114 423.634C299.114 423.913 299.114 424.193 299.253 424.542C299.323 424.821 299.463 425.031 299.672 425.17C299.812 425.31 300.022 425.38 300.231 425.45C300.441 425.45 300.72 425.45 300.999 425.45C301.279 425.45 301.488 425.38 301.698 425.31C301.977 425.24 302.256 425.101 302.536 424.891C302.815 424.682 303.095 424.542 303.304 424.263C303.514 424.123 303.653 423.913 303.863 423.634C304.072 423.424 304.212 423.215 304.282 423.075L304.561 423.075L305.539 426.008C305.19 426.358 304.701 426.707 304.072 427.126C303.444 427.545 302.745 427.894 302.047 428.104C301.349 428.313 300.72 428.453 300.161 428.453C299.603 428.453 299.114 428.453 298.625 428.243C298.136 428.104 297.717 427.824 297.368 427.405C297.019 426.986 296.739 426.497 296.53 425.939C296.25 425.17 296.25 424.402 296.39 423.634C296.6 422.936 296.949 422.377 297.508 421.958L297.508 421.818C297.508 421.818 296.879 421.818 296.53 421.818C296.25 421.818 295.901 421.679 295.552 421.469C295.203 421.329 294.924 421.05 294.644 420.701C294.365 420.352 294.155 419.933 293.946 419.374L294.016 419.583Z" fill="white"/>
<path d="M265.522 421.539L274.531 419.933L274.95 422.307C274.321 423.145 273.763 423.983 273.274 424.751C272.785 425.52 272.366 426.218 272.017 426.846C271.528 427.685 271.249 428.453 271.109 429.081C270.969 429.71 270.899 430.338 271.039 430.897C271.179 431.595 271.458 432.084 271.807 432.364C272.226 432.643 272.715 432.783 273.344 432.643C273.623 432.643 273.972 432.503 274.182 432.364C274.461 432.224 274.671 432.084 274.95 431.875C275.229 431.665 275.439 431.456 275.579 431.316C275.718 431.107 275.858 430.967 275.928 430.897L276.137 430.897L276.696 434.04C276.417 434.319 275.858 434.598 275.159 434.948C274.461 435.297 273.763 435.506 273.064 435.646C271.598 435.925 270.48 435.646 269.573 435.087C268.665 434.459 268.106 433.411 267.896 432.014C267.757 431.176 267.757 430.269 267.896 429.361C268.106 428.453 268.455 427.475 269.084 426.358C269.503 425.659 269.852 425.101 270.271 424.542C270.62 423.983 270.899 423.634 271.109 423.424L265.941 424.332L265.452 421.539L265.522 421.539Z" fill="white"/>
<path d="M255.815 428.383C255.535 426.846 255.745 425.52 256.373 424.402C257.002 423.285 258.049 422.586 259.446 422.307C260.144 422.167 260.843 422.167 261.402 422.307C262.03 422.447 262.519 422.726 263.008 423.145C263.566 423.634 264.055 424.263 264.474 425.101C264.893 425.939 265.173 426.986 265.452 428.243C265.662 429.5 265.801 430.688 265.731 431.735C265.731 432.783 265.452 433.691 265.103 434.598C264.754 435.437 264.195 436.065 263.427 436.624C262.728 437.182 261.751 437.532 260.703 437.741C260.284 437.811 259.865 437.881 259.516 437.881C259.097 437.881 258.818 437.881 258.678 437.881L258.189 435.017L258.399 435.017C258.399 435.017 258.818 435.087 259.167 435.157C259.516 435.157 259.865 435.157 260.354 435.157C261.332 435.017 262.03 434.529 262.379 433.83C262.798 433.132 262.938 432.224 262.868 431.037C262.519 431.386 262.17 431.735 261.751 432.014C261.402 432.294 260.913 432.433 260.424 432.573C260.005 432.643 259.586 432.643 259.167 432.573C258.748 432.503 258.399 432.364 258.049 432.154C257.56 431.875 257.141 431.386 256.792 430.827C256.443 430.269 256.164 429.43 255.954 428.453L255.815 428.383ZM258.957 425.52C258.957 425.52 258.748 426.078 258.748 426.358C258.748 426.637 258.748 427.056 258.818 427.615C258.887 428.104 259.027 428.453 259.167 428.732C259.306 429.011 259.516 429.221 259.725 429.361C259.935 429.5 260.144 429.57 260.424 429.64C260.633 429.64 260.913 429.64 261.192 429.64C261.402 429.64 261.611 429.5 261.821 429.43C262.03 429.291 262.24 429.221 262.379 429.081C262.379 429.081 262.379 428.872 262.379 428.732C262.379 428.592 262.379 428.383 262.309 428.173C262.17 427.335 261.96 426.637 261.751 426.148C261.541 425.659 261.332 425.31 261.052 425.101C260.843 424.891 260.703 424.821 260.494 424.751C260.284 424.751 260.075 424.751 259.865 424.751C259.725 424.751 259.516 424.891 259.376 424.961C259.237 425.101 259.097 425.24 258.957 425.52Z" fill="white"/>
<path d="M228.438 431.805C228.438 430.548 228.578 429.43 228.788 428.453C228.997 427.475 229.276 426.707 229.695 426.078C230.114 425.45 230.603 424.961 231.232 424.682C231.86 424.332 232.559 424.193 233.467 424.263C234.305 424.263 235.073 424.472 235.701 424.821C236.33 425.17 236.819 425.659 237.168 426.358C237.517 426.986 237.797 427.824 237.936 428.802C238.076 429.78 238.146 430.897 238.146 432.154C238.146 433.481 238.006 434.598 237.797 435.506C237.587 436.414 237.308 437.252 236.889 437.881C236.47 438.509 235.981 438.998 235.352 439.347C234.724 439.627 234.025 439.836 233.187 439.766C232.279 439.766 231.581 439.557 230.953 439.208C230.394 438.859 229.905 438.37 229.486 437.671C229.137 437.043 228.857 436.205 228.718 435.227C228.578 434.249 228.508 433.132 228.508 431.945L228.438 431.805ZM231.581 431.875C231.581 433.691 231.581 435.017 231.86 435.716C232.07 436.484 232.489 436.833 233.117 436.833C233.676 436.833 234.165 436.484 234.444 435.716C234.724 434.948 234.863 433.691 234.933 431.875C234.933 430.059 234.933 428.802 234.654 428.034C234.444 427.266 234.025 426.916 233.397 426.846C232.768 426.846 232.349 427.196 232.07 427.964C231.791 428.732 231.651 429.989 231.581 431.805L231.581 431.875Z" fill="white"/>
<path d="M198.338 426.358C198.478 425.659 198.688 425.031 199.037 424.472C199.386 423.913 199.805 423.494 200.294 423.145C200.783 422.796 201.341 422.586 201.97 422.447C202.598 422.307 203.297 422.377 204.135 422.447C205.113 422.586 205.881 422.866 206.509 423.145C207.138 423.424 207.697 423.774 208.046 424.053L207.487 427.196L207.208 427.196C206.789 426.707 206.37 426.358 205.811 425.939C205.252 425.589 204.694 425.38 204.205 425.24C203.925 425.24 203.576 425.17 203.227 425.17C202.878 425.17 202.529 425.24 202.249 425.45C202.04 425.589 201.83 425.729 201.691 425.939C201.551 426.148 201.411 426.497 201.341 426.916C201.272 427.335 201.341 427.685 201.341 427.964C201.481 428.243 201.621 428.453 201.9 428.592C202.11 428.732 202.459 428.872 202.808 428.942C203.157 429.011 203.506 429.081 203.786 429.151L204.344 429.151L203.856 431.805L203.367 431.805C203.017 431.665 202.668 431.595 202.319 431.595C201.97 431.595 201.691 431.595 201.481 431.665C201.272 431.735 201.062 431.875 200.853 432.084C200.713 432.294 200.573 432.573 200.503 432.922C200.503 433.202 200.503 433.481 200.503 433.691C200.573 433.9 200.713 434.04 200.853 434.179C201.062 434.319 201.272 434.459 201.481 434.529C201.76 434.598 201.97 434.668 202.11 434.738C202.389 434.738 202.738 434.738 203.017 434.738C203.367 434.738 203.646 434.668 203.995 434.598C204.275 434.598 204.484 434.459 204.763 434.319C205.043 434.179 205.252 434.11 205.392 434.04L205.671 434.04L205.113 437.182C204.624 437.322 204.065 437.392 203.297 437.532C202.529 437.601 201.83 437.532 201.062 437.462C200.364 437.322 199.735 437.113 199.176 436.903C198.688 436.624 198.269 436.344 197.919 435.995C197.57 435.646 197.291 435.157 197.221 434.668C197.081 434.179 197.081 433.621 197.221 432.992C197.361 432.154 197.71 431.456 198.199 430.897C198.688 430.338 199.316 430.059 200.014 429.989L200.014 429.849C200.014 429.849 199.526 429.57 199.246 429.43C198.967 429.291 198.757 429.011 198.548 428.662C198.338 428.383 198.199 427.964 198.129 427.545C198.059 427.126 198.059 426.637 198.129 426.078L198.338 426.358Z" fill="white"/>
<path d="M188.142 419.933L197.151 421.539L196.732 423.913C195.824 424.472 195.056 425.031 194.288 425.589C193.589 426.148 192.891 426.637 192.332 427.126C191.564 427.754 191.075 428.383 190.656 428.872C190.307 429.361 190.028 429.919 189.958 430.548C189.818 431.246 189.958 431.805 190.167 432.224C190.447 432.643 190.866 432.922 191.494 433.062C191.774 433.062 192.123 433.062 192.402 433.062C192.682 433.062 192.961 432.922 193.31 432.853C193.589 432.783 193.869 432.643 194.078 432.503C194.288 432.364 194.497 432.294 194.567 432.224L194.777 432.224L194.218 435.436C193.869 435.576 193.24 435.646 192.472 435.716C191.704 435.786 191.005 435.716 190.307 435.646C188.84 435.367 187.863 434.808 187.234 433.9C186.606 432.992 186.466 431.805 186.676 430.408C186.815 429.57 187.164 428.732 187.653 427.964C188.142 427.196 188.84 426.427 189.818 425.589C190.447 425.101 191.005 424.682 191.564 424.262C192.123 423.913 192.472 423.634 192.751 423.494L187.583 422.517L188.072 419.793L188.142 419.933Z" fill="white"/>
<path d="M232 63C325.181 63 401 138.819 401 232C401 325.181 325.181 401 232 401C138.819 401 63 325.181 63 232C63.0001 138.819 138.819 63 232 63ZM232 394.074C321.395 394.074 394.074 321.395 394.074 232C394.074 142.605 321.395 69.9263 232 69.9263C142.605 69.9262 69.9263 142.605 69.9263 232C69.9263 321.395 142.605 394.074 232 394.074Z" fill="#1F2333"/>
<circle cx="232" cy="232" r="166" fill="#131624"/>
<g filter="url(#filter0_d_622_9173)">
<rect x="232.085" y="222.227" width="95.2301" height="11.0184" transform="rotate(-45 232.085 222.227)" fill="url(#paint1_linear_622_9173)"/>
<circle cx="309.842" cy="151.582" r="11.0184" transform="rotate(-45 309.842 151.582)" fill="url(#paint2_radial_622_9173)"/>
<rect width="95.2301" height="11.0184" transform="matrix(-0.707107 -0.707107 -0.707107 0.707107 233.34 222.226)" fill="url(#paint3_linear_622_9173)"/>
<circle cx="11.0184" cy="11.0184" r="11.0184" transform="matrix(-0.707107 -0.707107 -0.707107 0.707107 171.165 151.582)" fill="url(#paint4_radial_622_9173)"/>
<rect x="233.34" y="242.379" width="95.2301" height="11.0184" transform="rotate(135 233.34 242.379)" fill="url(#paint5_linear_622_9173)"/>
<circle cx="155.582" cy="313.023" r="11.0184" transform="rotate(135 155.582 313.023)" fill="url(#paint6_radial_622_9173)"/>
<rect width="95.2301" height="11.0184" transform="matrix(0.707107 0.707107 0.707107 -0.707107 232.084 242.379)" fill="url(#paint7_linear_622_9173)"/>
<circle cx="11.0184" cy="11.0184" r="11.0184" transform="matrix(0.707107 0.707107 0.707107 -0.707107 294.26 313.023)" fill="url(#paint8_radial_622_9173)"/>
<ellipse cx="231.873" cy="232.487" rx="27.1524" ry="27.1524" fill="url(#paint9_radial_622_9173)"/>
</g>
</g>
<defs>
<filter id="filter0_d_622_9173" x="114.564" y="130.564" width="216.297" height="223.478" filterUnits="userSpaceOnUse" color-interpolation-filters="sRGB">
<feFlood flood-opacity="0" result="BackgroundImageFix"/>
<feColorMatrix in="SourceAlpha" type="matrix" values="0 0 0 0 0 0 0 0 0 0 0 0 0 0 0 0 0 0 127 0" result="hardAlpha"/>
<feOffset dx="-10" dy="10"/>
<feGaussianBlur stdDeviation="10"/>
<feComposite in2="hardAlpha" operator="out"/>
<feColorMatrix type="matrix" values="0 0 0 0 0 0 0 0 0 0 0 0 0 0 0 0 0 0 0.25 0"/>
<feBlend mode="normal" in2="BackgroundImageFix" result="effect1_dropShadow_622_9173"/>
<feBlend mode="normal" in="SourceGraphic" in2="effect1_dropShadow_622_9173" result="shape"/>
</filter>
<radialGradient id="paint0_diamond_622_9173" cx="0" cy="0" r="1" gradientUnits="userSpaceOnUse" gradientTransform="translate(231.632 231.632) rotate(-90) scale(228.368)">
<stop stop-color="#101323"/>
<stop offset="1" stop-color="#181D32"/>
</radialGradient>
<linearGradient id="paint1_linear_622_9173" x1="279.7" y1="222.227" x2="279.7" y2="233.245" gradientUnits="userSpaceOnUse">
<stop stop-color="#0F1221"/>
<stop offset="0.489583" stop-color="#2C3353"/>
<stop offset="1" stop-color="#0F1221"/>
</linearGradient>
<radialGradient id="paint2_radial_622_9173" cx="0" cy="0" r="1" gradientUnits="userSpaceOnUse" gradientTransform="translate(309.842 151.582) rotate(90) scale(14.0524)">
<stop stop-color="#36406A"/>
<stop offset="1" stop-color="#0F1221"/>
</radialGradient>
<linearGradient id="paint3_linear_622_9173" x1="47.6151" y1="0" x2="47.6151" y2="11.0184" gradientUnits="userSpaceOnUse">
<stop stop-color="#0F1221"/>
<stop offset="0.489583" stop-color="#2C3353"/>
<stop offset="1" stop-color="#0F1221"/>
</linearGradient>
<radialGradient id="paint4_radial_622_9173" cx="0" cy="0" r="1" gradientUnits="userSpaceOnUse" gradientTransform="translate(11.0184 11.0184) rotate(90) scale(14.0524)">
<stop stop-color="#36406A"/>
<stop offset="1" stop-color="#0F1221"/>
</radialGradient>
<linearGradient id="paint5_linear_622_9173" x1="280.955" y1="242.379" x2="280.955" y2="253.398" gradientUnits="userSpaceOnUse">
<stop stop-color="#0F1221"/>
<stop offset="0.489583" stop-color="#2C3353"/>
<stop offset="1" stop-color="#0F1221"/>
</linearGradient>
<radialGradient id="paint6_radial_622_9173" cx="0" cy="0" r="1" gradientUnits="userSpaceOnUse" gradientTransform="translate(155.582 313.023) rotate(90) scale(14.0524)">
<stop stop-color="#36406A"/>
<stop offset="1" stop-color="#0F1221"/>
</radialGradient>
<linearGradient id="paint7_linear_622_9173" x1="47.6151" y1="0" x2="47.6151" y2="11.0184" gradientUnits="userSpaceOnUse">
<stop stop-color="#0F1221"/>
<stop offset="0.489583" stop-color="#2C3353"/>
<stop offset="1" stop-color="#0F1221"/>
</linearGradient>
<radialGradient id="paint8_radial_622_9173" cx="0" cy="0" r="1" gradientUnits="userSpaceOnUse" gradientTransform="translate(11.0184 11.0184) rotate(90) scale(14.0524)">
<stop stop-color="#36406A"/>
<stop offset="1" stop-color="#0F1221"/>
</radialGradient>
<radialGradient id="paint9_radial_622_9173" cx="0" cy="0" r="1" gradientUnits="userSpaceOnUse" gradientTransform="translate(231.873 232.487) rotate(90) scale(34.6291 34.6291)">
<stop stop-color="#36406A"/>
<stop offset="1" stop-color="#0F1221"/>
</radialGradient>
<clipPath id="clip0_622_9173">
<rect width="464" height="464" fill="white" transform="translate(464 464) rotate(-180)"/>
</clipPath>
</defs>
</svg>
